<svg width="607" height="99" viewBox="0 0 607 99" fill="none" xmlns="http://www.w3.org/2000/svg">
<path d="M605.927 84.8785C602.97 82.5962 598.395 82.1967 593.417 83.7311C584.329 86.5326 577.932 88.4028 572.352 88.4669C566.469 88.5347 561.915 86.491 557.587 81.8404C552.494 76.3691 549.503 71.735 548.444 67.6738C547.476 63.962 548.225 61.1705 549.178 58.7067C551.049 53.8715 555.371 49.9536 555.415 49.9146L555.947 49.4369L555.47 48.9054C553.594 46.8104 549.816 45.2127 544.838 47.0065C540.726 48.4885 538.71 50.8813 535.76 54.6629C529.976 62.0771 524.053 63.6728 521.036 63.9646C518.363 64.2228 511.263 64.9088 504.339 59.5651C498.602 55.1383 495.226 50.0463 494.577 44.8402C494.084 40.8842 495.203 37.0402 497.813 33.7239C499.879 31.0986 502.441 29.7876 505.646 29.7163C507.229 29.6807 508.143 29.8642 508.615 30.0119C509.318 30.0666 510.022 30.1247 510.725 30.1954L510.062 29.2087C509.98 29.0851 507.992 26.1619 504.399 24.1421C501.053 22.2611 495.657 20.8564 488.949 24.8457C485.724 26.7638 482.975 29.0426 480.549 31.0524C473.72 36.7113 468.786 40.8001 458.579 34.2381C453.166 30.7588 451.477 27.2984 450.359 25.0085C450.238 24.7605 450.123 24.5268 450.012 24.3082C447.687 19.7392 447.386 14.2841 449.143 8.53199C450.056 5.53867 451.486 2.64282 453.323 5.34058e-05L0 0V98.9333L597.078 98.9334C597.089 98.9556 597.097 98.9775 597.107 99.0001L597.256 98.9334H597.875V98.6544L598.424 98.407C598.169 97.8455 597.988 97.2858 597.875 96.7289V94.2731H597.839C597.935 93.7347 598.097 93.2018 598.33 92.676C600.065 88.7638 605.003 86.3776 605.687 86.155L607 85.7055L605.927 84.8785Z" fill="#F1FAFF"/>
</svg>