<svg width="100" height="100" viewBox="0 0 100 100" fill="none" xmlns="http://www.w3.org/2000/svg">
<path d="M65.625 40.2344C66.7037 40.2344 67.5781 39.3599 67.5781 38.2812C67.5781 37.2026 66.7037 36.3281 65.625 36.3281C64.5463 36.3281 63.6719 37.2026 63.6719 38.2812C63.6719 39.3599 64.5463 40.2344 65.625 40.2344Z" fill="#DFEFF8"/>
<path d="M34.375 40.2344C35.4537 40.2344 36.3281 39.3599 36.3281 38.2812C36.3281 37.2026 35.4537 36.3281 34.375 36.3281C33.2963 36.3281 32.4219 37.2026 32.4219 38.2812C32.4219 39.3599 33.2963 40.2344 34.375 40.2344Z" fill="#DFEFF8"/>
<path d="M50 83.2031C64.0664 83.2031 75.3906 71.7928 75.3906 57.8125C75.3906 56.734 74.516 55.8594 73.4375 55.8594H26.5625C25.4838 55.8594 24.6094 56.734 24.6094 57.8125C24.6094 71.7564 35.884 83.2031 50 83.2031ZM42.1949 77.8309C44.4645 76.2434 47.1572 75.3906 50 75.3906C52.8428 75.3906 55.5356 76.2434 57.8051 77.8309C55.3326 78.7937 52.6799 79.2969 50 79.2969C47.3205 79.2969 44.668 78.7939 42.1949 77.8309ZM61.6236 75.8762C58.4146 73.0338 54.3439 71.4844 50 71.4844C45.6557 71.4844 41.585 73.0338 38.376 75.8762C35.1701 73.8127 32.5803 70.9508 30.859 67.5762H69.1408C67.4197 70.9504 64.8303 73.8121 61.6236 75.8762ZM71.3969 59.7656C71.2775 61.0908 71.0361 62.3963 70.6754 63.6719H29.3246C28.9639 62.3963 28.7223 61.0908 28.6031 59.7656H71.3969Z" fill="#DFEFF8"/>
<path d="M34.375 48.0469C39.7598 48.0469 44.1406 42.7898 44.1406 36.3281C44.1406 29.8664 39.7598 24.6094 34.375 24.6094C28.9902 24.6094 24.6094 29.8664 24.6094 36.3281C24.6094 42.7898 28.9902 48.0469 34.375 48.0469ZM34.375 28.5156C37.6059 28.5156 40.2344 32.0203 40.2344 36.3281C40.2344 40.6359 37.6059 44.1406 34.375 44.1406C31.1441 44.1406 28.5156 40.6359 28.5156 36.3281C28.5156 32.0203 31.1441 28.5156 34.375 28.5156Z" fill="#DFEFF8"/>
<path d="M75.3906 36.3281C75.3906 29.8664 71.0098 24.6094 65.625 24.6094C60.2402 24.6094 55.8594 29.8664 55.8594 36.3281C55.8594 42.7898 60.2402 48.0469 65.625 48.0469C71.0098 48.0469 75.3906 42.7898 75.3906 36.3281ZM59.7656 36.3281C59.7656 32.0203 62.3941 28.5156 65.625 28.5156C68.8559 28.5156 71.4844 32.0203 71.4844 36.3281C71.4844 40.6359 68.8559 44.1406 65.625 44.1406C62.3941 44.1406 59.7656 40.6359 59.7656 36.3281Z" fill="#DFEFF8"/>
<path d="M16.0156 85.9375C17.0943 85.9375 17.9688 85.0631 17.9688 83.9844C17.9688 82.9057 17.0943 82.0312 16.0156 82.0312C14.9369 82.0312 14.0625 82.9057 14.0625 83.9844C14.0625 85.0631 14.9369 85.9375 16.0156 85.9375Z" fill="#DFEFF8"/>
<path d="M50 0C22.3473 0 0 22.3406 0 50C0 60.1883 3.03906 69.9875 8.78848 78.3381C9.40039 79.2268 10.6166 79.451 11.5049 78.8391C12.3934 78.2273 12.6178 77.0113 12.0059 76.1228C6.70703 68.4268 3.90625 59.3937 3.90625 50C3.90625 24.5838 24.5838 3.90625 50 3.90625C75.4162 3.90625 96.0938 24.5838 96.0938 50C96.0938 75.4162 75.4162 96.0938 50 96.0938C40.6066 96.0938 31.5734 93.293 23.8771 87.9941C22.9887 87.3822 21.7725 87.6066 21.1607 88.4951C20.549 89.3836 20.7734 90.5996 21.6619 91.2113C30.0129 96.9609 39.8119 100 50 100C77.6525 100 100 77.6598 100 50C100 22.3475 77.6598 0 50 0Z" fill="#DFEFF8"/>
</svg>