<svg width="123" height="137" viewBox="0 0 123 137" fill="none" xmlns="http://www.w3.org/2000/svg">
<path d="M35.2572 46.2517C35.9565 45.4541 38.3101 42.5424 39.2444 38.5607C40.2333 34.3442 39.3474 30.3573 36.6004 26.7233C31.2994 19.7113 32.6453 16.4513 34.0376 14.9904L34.0744 15.0254L34.4389 14.6427L34.5963 15.1295C34.6012 15.1414 35.0274 16.3543 35.9635 17.6896C36.8147 18.9033 38.2578 20.4566 40.3322 20.9933C42.7029 21.6063 46.0594 21.182 48.2594 18.8738C48.2788 18.8533 48.2959 18.8318 48.3148 18.8116M49.3284 62.4804C50.1426 61.801 52.9257 59.288 54.4666 55.4997C56.0981 51.4877 55.8703 47.3911 53.721 43.3744C49.5733 35.6246 51.4368 32.5927 53.0393 31.3659L53.1004 31.4456L53.4691 31.1634L53.5341 31.6486C53.5364 31.6613 53.7622 32.9161 54.4798 34.3801C55.1314 35.711 56.3104 37.4616 58.2764 38.3142C60.515 39.2845 64.0203 39.307 66.5411 37.3767M66.5373 37.3726C67.3517 36.6933 69.9562 34.2538 71.4971 30.4655C73.1294 26.4532 72.8679 22.3817 70.7183 18.3645C66.5707 10.6147 68.4015 7.60718 70.0033 6.38031L69.9642 6.32879L70.3937 6L70.5084 6.55091C70.511 6.56334 70.7618 7.85053 71.4792 9.31507C72.1316 10.6465 73.3246 12.416 75.2906 13.2683C77.5374 14.242 80.9232 14.3504 83.4551 12.4114C83.4771 12.3945 83.4997 12.379 83.5214 12.3617M84.4704 80.923C85.4959 80.6525 89.0752 79.5553 92.0765 76.7772C95.2546 73.8344 96.7637 70.0311 96.5191 65.4819C96.0466 56.7046 98.999 54.7518 100.971 54.3192L100.959 54.2661L101.446 54.1594L101.317 54.7021C101.313 54.7142 100.995 55.9838 101.024 57.6143C101.051 59.0967 101.381 61.204 102.8 62.8092C104.423 64.6431 107.443 66.1752 110.559 65.492C110.586 65.4861 110.612 65.4809 110.64 65.4747M58.6185 83.0806C59.5272 82.5343 62.6569 80.4787 64.7609 76.9713C66.9884 73.257 67.3912 69.1733 65.8832 64.8742C62.9733 56.58 65.2803 53.8689 67.0516 52.9025L67.0674 52.9304L67.4689 52.7114L67.4748 53.2307C67.4759 53.2432 67.5145 54.5324 67.9986 56.0896C68.4384 57.505 69.3409 59.4265 71.1526 60.57C73.2235 61.8768 76.5499 62.4982 79.3495 60.9702C79.3736 60.957 79.3969 60.942 79.4207 60.9285M79.4685 60.9488C80.3772 60.4026 83.5071 58.3472 85.6108 54.8401C87.8383 51.1256 88.2233 47.052 86.7153 42.7526C83.8054 34.4583 86.0937 31.7571 87.865 30.7904L87.8582 30.778L88.2963 30.539L88.3136 31.0785C88.3142 31.0912 88.3589 32.3906 88.8431 33.9478C89.2832 35.3631 90.1877 37.2895 91.9999 38.433C94.0705 39.7396 97.398 40.3633 100.197 38.8356C100.222 38.8224 100.246 38.8089 100.27 38.7955M100.199 38.6886C101.108 38.1424 104.237 36.087 106.341 32.5799C108.569 28.8656 108.954 24.792 107.446 20.4926C104.535 12.1981 106.824 9.49714 108.595 8.53045L108.589 8.51776L109.027 8.27907L109.044 8.81859C109.045 8.83128 109.089 10.1306 109.573 11.6881C110.014 13.1032 110.918 15.0296 112.73 16.1734C114.801 17.48 118.128 18.1036 120.928 16.5759C120.952 16.5627 120.976 16.549 121 16.5355" stroke="#FDFDFF" stroke-width="6" stroke-miterlimit="10"/>
<path d="M63.9473 92.1058C57.4601 92.2288 34.8061 105.781 29.329 111.293L26.1644 114.477C20.6871 119.989 11.6961 120.018 6.18415 114.541L5.153 113.516C-0.359252 108.039 -0.387989 99.0479 5.08931 93.5359L9.52924 89.0673C15.0063 83.5553 26.4973 63.3154 28.3802 55.6976M41.3783 65.8721L33.0196 74.3822M53.9465 78.8822L45.9888 87.1638M37.1985 105.27L42.4417 111.486L38.6604 116.401L29.9284 121.376L24.2771 116.128M41.0295 113.322C41.0295 113.322 46.7688 119.574 49.9681 124.605C53.9467 130.862 48.5028 140.348 40.4162 132.614C37.0504 129.395 30.8642 120.842 30.8642 120.842M67.2191 90.1619C62.0237 95.489 49.4304 91.633 39.091 81.5493C28.7517 71.4656 24.5817 58.9727 29.7771 53.6456C34.9725 48.3185 47.5659 52.1745 57.9052 62.2582C68.2445 72.3419 72.4145 84.8348 67.2191 90.1619ZM54.8491 78.0697C53.0846 79.8789 48.8075 78.5692 45.2958 75.1444C41.7842 71.7195 40.3678 67.4765 42.1323 65.6673C43.8968 63.8581 48.1739 65.1678 51.6856 68.5927C55.1972 72.0175 56.6136 76.2605 54.8491 78.0697Z" stroke="#5A68D3" stroke-width="2" stroke-miterlimit="10"/>
</svg>