<svg width="26" height="25" viewBox="0 0 26 25" fill="none" xmlns="http://www.w3.org/2000/svg">
<path d="M16.0369 5.60486H14.954C14.9717 5.60486 14.8741 5.61605 14.8741 5.67852V5.87278C14.8741 6.21468 14.7038 6.5373 14.3622 6.5373H12.2254C11.8835 6.5373 11.4552 6.21468 11.4552 5.87278V5.67852C11.4552 5.61605 11.6159 5.60486 11.6333 5.60486H10.1734C9.65929 5.60486 9.27948 5.91785 9.27948 6.43194V18.1621C9.27948 18.6762 9.65929 18.9699 10.1734 18.9699H16.0369C16.551 18.9699 17.0498 18.6765 17.0498 18.1621V6.43194C17.0498 5.91785 16.5513 5.60486 16.0369 5.60486ZM13.1056 18.4977C12.5688 18.4977 12.1343 18.0629 12.1343 17.5264C12.1343 16.99 12.5688 16.5551 13.1056 16.5551C13.6418 16.5551 14.0769 16.99 14.0769 17.5264C14.0769 18.0629 13.6414 18.4977 13.1056 18.4977Z" fill="#481CC3"/>
<path d="M13.1055 0C6.2116 0 0.623779 5.58813 0.623779 12.4817C0.623779 19.3755 6.21191 24.9637 13.1055 24.9637C19.9987 24.9637 25.5871 19.3755 25.5871 12.4817C25.5871 5.58813 19.9984 0 13.1055 0ZM18.293 18.3483C18.293 19.5499 17.3189 20.524 16.1173 20.524H10.2118C9.01018 20.524 8.03608 19.5499 8.03608 18.3483V6.53735C8.03608 5.33574 9.01018 4.36165 10.2118 4.36165H16.1173C17.3189 4.36165 18.293 5.33574 18.293 6.53735V18.3483Z" fill="#481CC3"/>
</svg>