<svg width="96" height="97" viewBox="0 0 96 97" fill="none" xmlns="http://www.w3.org/2000/svg">
<path d="M48.0004 96.0504C74.491 96.0504 95.9658 74.5756 95.9658 48.085C95.9658 21.5945 74.491 0.119629 48.0004 0.119629C21.5099 0.119629 0.0350342 21.5945 0.0350342 48.085C0.0350342 74.5756 21.5099 96.0504 48.0004 96.0504Z" fill="#DFEFF8"/>
<path d="M67.4282 86.9088C66.5753 86.9088 65.7599 86.6454 65.1302 86.1666L63.9503 85.2736C63.5718 84.9876 62.6238 84.6579 61.9732 84.7442L60.5037 84.9291C58.8633 85.1367 57.1549 84.1294 56.5244 82.632L55.9488 81.2663C55.7369 80.7631 55.006 80.0315 54.5011 79.8187L53.138 79.2439C51.6258 78.6099 50.636 76.8997 50.84 75.2672L51.0249 73.7951C51.0929 73.2517 50.8261 72.2541 50.4964 71.818L49.6017 70.6398C48.6083 69.3282 48.6083 67.352 49.5999 66.043L50.4973 64.8622C50.8261 64.427 51.0938 63.4293 51.0249 62.8877L50.84 61.4156C50.6368 59.7839 51.624 58.0738 53.138 57.4371L54.502 56.8624C55.0069 56.6496 55.7369 55.9197 55.9496 55.4156L56.5235 54.0508C57.1566 52.5516 58.8764 51.5461 60.5046 51.7537L61.9724 51.9368C62.6517 52.0214 63.5718 51.6935 63.9511 51.4074L65.1311 50.5144C66.3895 49.5603 68.4651 49.5612 69.7262 50.5135L70.907 51.4083C71.2855 51.6935 72.237 52.0231 72.8814 51.9368L74.3535 51.7537C75.9695 51.5461 77.7024 52.5534 78.332 54.0499L78.9076 55.4165C79.1196 55.9197 79.8486 56.6496 80.3536 56.8624L81.7184 57.4363C83.2341 58.0764 84.2213 59.7874 84.0155 61.4174L83.8315 62.886C83.7635 63.4293 84.0312 64.4261 84.3609 64.8622L85.2548 66.043C86.2481 67.3529 86.2481 69.329 85.2548 70.6398L84.3609 71.8198C84.0295 72.2558 83.7626 73.2526 83.8315 73.7959L84.0155 75.268C84.2222 76.8971 83.2341 78.6082 81.7175 79.2457L80.3527 79.8204C79.8495 80.0323 79.1196 80.7631 78.9076 81.2663L78.3329 82.632C77.7015 84.1303 75.9791 85.1376 74.3527 84.93L72.8814 84.7451C72.2404 84.6588 71.2838 84.9876 70.9061 85.2745L69.7262 86.1684C69.0965 86.6463 68.2811 86.9088 67.4282 86.9088ZM62.1572 81.6814C63.4183 81.6814 64.8808 82.148 65.7948 82.8422L66.9747 83.7352C67.0489 83.7911 67.2111 83.8565 67.4291 83.8565C67.6471 83.8565 67.8102 83.7911 67.8834 83.7352L69.0634 82.8414C70.1221 82.039 71.9448 81.5515 73.2643 81.7155L74.7346 81.9004H74.7399C75.0791 81.9004 75.4358 81.6509 75.5213 81.446L76.0951 80.082C76.6131 78.8498 77.9344 77.5268 79.1684 77.0061L80.5358 76.4305C80.7809 76.3276 81.0216 75.9108 80.9885 75.6483L80.8044 74.1753C80.6379 72.848 81.121 71.041 81.9312 69.9762L82.8242 68.7962C82.9856 68.5843 82.9856 68.1003 82.8242 67.8883L81.9303 66.7075C81.121 65.641 80.6379 63.8357 80.8044 62.5084L80.9885 61.0389C81.0216 60.7729 80.78 60.3552 80.5341 60.2514L79.1701 59.6776C77.9352 59.1569 76.6131 57.8357 76.0951 56.6025L75.5204 55.2368C75.4341 55.0327 75.0756 54.7825 74.78 54.7825L73.2625 54.9682C71.9631 55.1322 70.1247 54.6455 69.0651 53.8449L67.8843 52.9493C67.8119 52.8944 67.648 52.829 67.4299 52.829C67.2119 52.829 67.0488 52.8935 66.9756 52.9493L65.7948 53.8432C64.7352 54.6455 62.916 55.1331 61.5939 54.9682L60.1261 54.7851C60.1261 54.7851 60.1226 54.7851 60.12 54.7851C59.779 54.7851 59.4241 55.0345 59.3386 55.2386L58.7648 56.6034C58.2441 57.8374 56.9229 59.1595 55.6898 59.6776L54.3258 60.2523C54.0807 60.356 53.8374 60.7755 53.8714 61.0398L54.0563 62.5101C54.2229 63.8366 53.7406 65.6409 52.9322 66.7084L52.0348 67.8892C51.8752 68.1003 51.8752 68.586 52.0365 68.7979L52.9305 69.9762C53.7398 71.0445 54.2229 72.8497 54.0563 74.177L53.8714 75.6483C53.8383 75.9116 54.079 76.3294 54.3241 76.4314L55.6906 77.0079C56.9247 77.5285 58.2468 78.8506 58.7648 80.0829L59.3404 81.4486C59.4267 81.6527 59.786 81.9038 60.0817 81.9038L61.5956 81.7163C61.7726 81.6937 61.961 81.6814 62.1572 81.6814Z" fill="#5A68D3"/>
<path d="M71.9742 61.3923L70.3812 60.6819L63.0107 77.209L64.6037 77.9194L71.9742 61.3923Z" fill="#5A68D3"/>
<path d="M71.5358 78.9853C69.2544 78.9853 67.3986 76.7518 67.3986 74.0073C67.3986 71.2637 69.2544 69.0303 71.5358 69.0303C73.8172 69.0303 75.673 71.2637 75.673 74.0073C75.673 76.7527 73.8172 78.9853 71.5358 78.9853ZM71.5358 70.7745C70.2163 70.7745 69.1428 72.2247 69.1428 74.0073C69.1428 75.7907 70.2163 77.2411 71.5358 77.2411C72.8553 77.2411 73.9288 75.7907 73.9288 74.0073C73.9288 72.2247 72.8553 70.7745 71.5358 70.7745Z" fill="#5A68D3"/>
<path d="M62.9518 68.8591C60.6704 68.8591 58.8137 66.6248 58.8137 63.8794C58.8137 61.1358 60.6704 58.9023 62.9518 58.9023C65.2332 58.9023 67.0899 61.1358 67.0899 63.8794C67.0899 66.6256 65.2341 68.8591 62.9518 68.8591ZM62.9518 60.6465C61.6315 60.6465 60.5579 62.0968 60.5579 63.8794C60.5579 65.6637 61.6315 67.1149 62.9518 67.1149C64.2722 67.1149 65.3457 65.6637 65.3457 63.8794C65.3457 62.0968 64.2722 60.6465 62.9518 60.6465Z" fill="#5A68D3"/>
<path d="M72.1847 37.5201H12.7443C10.4602 37.5201 8.60181 35.6617 8.60181 33.3776V30.9611C8.60181 28.677 10.4602 26.8186 12.7443 26.8186H72.1847C74.4688 26.8186 76.3272 28.677 76.3272 30.9611V33.3776C76.3272 35.6625 74.4688 37.5201 72.1847 37.5201ZM12.7443 29.8718C12.1434 29.8718 11.6542 30.3611 11.6542 30.9619V33.3785C11.6542 33.9794 12.1434 34.4687 12.7443 34.4687H72.1847C72.7856 34.4687 73.2749 33.9794 73.2749 33.3785V30.9619C73.2749 30.3611 72.7856 29.8718 72.1847 29.8718H12.7443Z" fill="#5A68D3"/>
<path d="M73.4442 36.1973L70.8584 35.7935L68.4448 51.2477L71.0306 51.6515L73.4442 36.1973Z" fill="#5A68D3"/>
<path d="M50.8715 67.4949H20.7057C18.5071 67.4949 16.5178 65.7926 16.1786 63.6202L11.8975 36.2311L14.914 35.7593L19.1943 63.1484C19.2998 63.826 20.0202 64.4426 20.7057 64.4426H50.8715V67.4949Z" fill="#5A68D3"/>
<path d="M44.6081 60.6469H40.0758C38.7816 60.6469 37.6103 59.6457 37.4098 58.3663L35.1955 44.2279C35.0935 43.5712 35.2705 42.918 35.683 42.4366C36.0955 41.9543 36.7121 41.6788 37.3757 41.6788H47.3072C47.9717 41.6788 48.5892 41.9543 49.0008 42.4366C49.4124 42.9189 49.5903 43.5712 49.4883 44.2279L47.2723 58.3672C47.0717 59.6457 45.9023 60.6469 44.6081 60.6469ZM37.3757 43.423C37.217 43.423 37.0906 43.4744 37.0077 43.5703C36.9249 43.6671 36.8943 43.8014 36.9188 43.9584L39.133 58.0969C39.1984 58.5181 39.6476 58.9027 40.0749 58.9027H44.6072C45.0328 58.9027 45.4819 58.519 45.5473 58.0969L47.7633 43.9576C47.7877 43.8006 47.7572 43.6671 47.6743 43.5703C47.5915 43.4744 47.4642 43.423 47.3055 43.423H37.3757Z" fill="#5A68D3"/>
<path d="M52.2608 58.9951C52.191 58.7047 52.1797 58.4021 52.2277 58.0969L54.4437 43.9576C54.6434 42.6799 55.8146 41.6788 57.1088 41.6788H62.8734C63.5379 41.6788 64.1545 41.9543 64.5661 42.4357C64.9795 42.918 65.1574 43.5712 65.0553 44.227L63.5902 53.5672L61.8661 53.296L63.3312 43.9576C63.3556 43.8015 63.3242 43.6671 63.2414 43.5712C63.1585 43.4744 63.0312 43.423 62.8725 43.423H57.1079C56.6815 43.423 56.2323 43.8067 56.1669 44.2279L53.9509 58.3672C53.9378 58.4457 53.9405 58.5207 53.957 58.5887L52.2608 58.9951Z" fill="#5A68D3"/>
<path d="M30.2751 60.6466H24.7295C23.4353 60.6466 22.264 59.6454 22.0635 58.366L19.8483 44.2285C19.7463 43.5718 19.9233 42.9186 20.3358 42.4363C20.7483 41.954 21.3658 41.6785 22.0294 41.6785H27.5751C28.8702 41.6785 30.0405 42.6796 30.2402 43.959L32.4554 58.0957C32.5592 58.7515 32.3821 59.4047 31.9696 59.887C31.5571 60.3701 30.9397 60.6466 30.2751 60.6466ZM22.0294 43.4227C21.8707 43.4227 21.7434 43.4741 21.6605 43.5709C21.5777 43.6668 21.5472 43.802 21.5716 43.9581L23.7867 58.0957C23.8521 58.5178 24.3013 58.9024 24.7286 58.9024H30.2743C30.433 58.9024 30.5603 58.8509 30.6432 58.7541C30.726 58.6582 30.7565 58.5239 30.7321 58.3678L28.5161 44.2285C28.4507 43.8064 28.0016 43.4227 27.5751 43.4227H22.0294Z" fill="#5A68D3"/>
<path d="M61.9263 29.4754L43.2512 12.5009C42.7968 12.0875 42.0529 12.1137 41.6291 12.5559L25.4351 29.403L23.2348 27.2873L39.4288 10.4402C40.9959 8.81107 43.6314 8.72038 45.3041 10.2413L63.9792 27.2158L61.9263 29.4754Z" fill="#5A68D3"/>
</svg>
