<svg width="183" height="104" viewBox="0 0 183 104" fill="none" xmlns="http://www.w3.org/2000/svg">
<path d="M71.7408 62.6631C82.9961 62.6631 89.6572 56.3709 92.1651 54.0019C94.9953 51.3286 99.7432 45.0335 99.7432 32.9116C99.7432 26.7283 99.8958 22.6975 102.894 17.9465C106.525 12.1952 111.623 10.8504 115.185 11.5108L116.09 11.6783L115.928 12.5843C115.915 12.6589 114.63 20.0615 116.559 26.4703C117.541 29.736 118.991 33.1747 122.912 36.2009C127.201 39.5116 136.423 43.4464 143.402 43.4587M0 81.8796C11.2553 81.8796 17.9161 75.5874 20.4243 73.2184C23.2542 70.5451 28.0021 64.25 28.0021 52.128C28.0021 45.9447 28.1546 41.914 31.1536 37.163C34.7844 31.4119 39.8821 30.0672 43.4443 30.7272L44.3489 30.8948L44.1873 31.8014C44.1737 31.8756 42.8892 39.278 44.8176 45.6871C45.8 48.9528 47.25 52.3915 51.1704 55.4173C55.4597 58.728 64.6822 62.6628 71.6605 62.6751M110.389 71.2296C121.644 71.2296 128.305 64.9374 130.813 62.5684C133.643 59.895 138.391 53.6 138.391 41.478C138.391 35.2947 138.543 31.264 141.542 26.513C145.173 20.7619 150.271 19.4169 153.833 20.0772L154.737 20.2448L154.576 21.1514C154.563 21.2256 153.278 28.6276 155.206 35.0371C156.189 38.3028 157.639 41.7415 161.559 44.7673C165.849 48.078 175.071 52.0128 182.049 52.0251M38.6477 90.4463C49.9029 90.4463 56.5641 84.1541 59.072 81.7851C61.9018 79.1118 66.6497 72.817 66.6497 60.6947C66.6497 54.5114 66.8023 50.481 69.8012 45.7297C73.432 39.9787 78.5298 38.6336 82.0919 39.2943L82.9959 39.4618L82.8346 40.3681C82.8217 40.4423 81.5368 47.8447 83.4656 54.2538C84.4483 57.5195 85.898 60.9582 89.8181 63.984C94.1074 67.2947 103.33 71.2295 110.308 71.2418" stroke="white" stroke-width="8" stroke-miterlimit="10"/>
<path d="M84.6983 65.6466V73.9095C84.6983 76.2264 82.8035 78.122 80.4877 78.122H80.1638C77.848 78.122 75.9532 76.2264 75.9532 73.9095V52.8471C75.9532 46.0468 81.4639 40.5336 88.2611 40.5336H104.132C110.929 40.5336 116.44 46.0468 116.44 52.8471V73.9095C116.44 76.2264 114.545 78.122 112.229 78.122H111.905C109.589 78.122 107.695 76.2264 107.695 73.9095V65.6466M123.08 35.9971H131.166C136.27 35.9971 140.408 40.0593 140.408 45.0702V63.5404C140.408 65.8573 138.689 67.7529 136.587 67.7529H136.293C134.192 67.7529 132.31 65.8573 132.31 63.5404V55.2774M123.08 35.9971C127.105 35.9971 130.367 32.7324 130.367 28.7056C130.367 24.6788 127.104 21.4144 123.079 21.4144C119.054 21.4144 115.791 24.6788 115.791 28.7056C115.791 32.7324 119.055 35.9971 123.08 35.9971ZM84.6979 55.2774V103.559M107.695 55.2774V103.559M132.31 47.8245V85.0889M69.3131 35.9971H61.2252C56.1213 35.9971 51.9849 40.0593 51.9849 45.0702V63.5404C51.9849 65.8573 53.7028 67.7529 55.8042 67.7529H56.098C58.1994 67.7529 60.0822 65.8573 60.0822 63.5404V55.2774M69.3131 35.9971C73.3381 35.9971 76.6004 32.7324 76.6004 28.7056C76.6004 24.6788 73.3375 21.4144 69.3125 21.4144C65.2875 21.4144 62.0246 24.6788 62.0246 28.7056C62.0246 32.7324 65.2881 35.9971 69.3131 35.9971ZM60.0826 47.8245V85.0889M105.103 31.8657C105.103 36.6529 101.224 40.5337 96.4387 40.5337C91.6537 40.5337 87.7746 36.6529 87.7746 31.8657C87.7746 27.0785 91.6537 23.1977 96.4387 23.1977C101.224 23.1977 105.103 27.0785 105.103 31.8657ZM115.792 8.29118C115.792 12.318 112.529 15.5824 108.504 15.5824C104.479 15.5824 101.216 12.318 101.216 8.29118C101.216 4.26437 104.479 1 108.504 1C112.529 1 115.792 4.26437 115.792 8.29118ZM91.176 8.29118C91.176 12.318 87.9131 15.5824 83.8881 15.5824C79.8631 15.5824 76.6002 12.318 76.6002 8.29118C76.6002 4.26437 79.8631 1 83.8881 1C87.9131 1 91.176 4.26437 91.176 8.29118Z" stroke="#5A68D3" stroke-width="2" stroke-miterlimit="10"/>
</svg>