<svg width="93" height="100" viewBox="0 0 93 100" fill="none" xmlns="http://www.w3.org/2000/svg">
<path d="M91.7165 19.3566C91.261 19.0087 90.6694 18.8932 90.1165 19.044L71.1925 24.2079C70.2129 24.4752 69.6354 25.4861 69.9027 26.4657C70.1701 27.4455 71.1808 28.0229 72.1606 27.7555L88.7621 23.2255V75.7605C88.7605 75.7892 88.7596 75.8181 88.7592 75.8471C88.7338 78.4483 87.6821 80.9189 85.7973 82.8035C81.9909 86.6101 75.9541 86.7671 72.3406 83.1534C68.7269 79.5399 68.8839 73.503 72.6905 69.6967C75.1791 67.2079 78.7674 66.1837 82.0556 67.024C82.6058 67.1643 83.1901 67.0431 83.6385 66.6947C84.087 66.3463 84.3494 65.8103 84.3494 65.2425V37.5751C84.3494 37.0019 84.0822 36.4617 83.6268 36.1139C83.1712 35.766 82.5797 35.6502 82.027 35.8011L44.8862 45.9291C44.0862 46.1474 43.5313 46.8738 43.5313 47.7031V86.3208C43.5296 86.3495 43.5287 86.3784 43.5284 86.4074C43.5032 89.0091 42.4513 91.4797 40.5665 93.3645C38.7118 95.2192 36.2824 96.2712 33.7254 96.327C31.1991 96.3806 28.8493 95.4541 27.1096 93.7146C23.4959 90.1009 23.6529 84.0643 27.4595 80.2577C29.9481 77.7689 33.5369 76.745 36.8246 77.585C37.3746 77.7253 37.9591 77.6042 38.4075 77.2557C38.856 76.9073 39.1183 76.3713 39.1183 75.8036V36.7717L56.2353 32.101C57.2149 31.8337 57.7924 30.8228 57.5251 29.8431C57.2576 28.8635 56.247 28.2862 55.2672 28.5533L36.7958 33.5938C35.9959 33.8121 35.441 34.5387 35.441 35.3676V73.6523C31.5938 73.3832 27.6943 74.8223 24.8591 77.6573C19.6189 82.8976 19.4619 91.2674 24.5092 96.3146C26.9709 98.7764 30.222 100 33.516 99.9999C36.9754 99.9997 40.4821 98.6492 43.1667 95.9647C45.7084 93.4228 47.1393 90.0868 47.2038 86.5593C47.2069 86.5159 47.2084 86.472 47.2084 86.428V49.1076L80.6719 39.9822V63.0913C76.825 62.8208 72.9253 64.2611 70.0899 67.0963C64.8497 72.3366 64.6927 80.7063 69.74 85.7538C72.2018 88.2156 75.4529 89.4392 78.7466 89.439C82.2062 89.4388 85.7129 88.0883 88.3973 85.4037C90.9393 82.8618 92.3703 79.5255 92.4345 75.9981C92.4376 75.9547 92.4391 75.9109 92.4391 75.867V20.8179C92.4392 20.2447 92.1719 19.7045 91.7165 19.3566Z" fill="#DFEFF8"/>
<path d="M22.7073 19.215C22.7073 18.3858 23.3394 17.4411 24.6893 17.4411C25.6662 17.4411 26.3844 18.2888 26.3844 19.215V57.9399C26.3844 57.9839 26.383 58.0278 26.3799 58.0712C26.3153 61.5987 24.8845 64.9347 22.3427 67.4767C19.6581 70.1611 16.1514 71.5116 12.692 71.5118C9.39806 71.5121 6.14696 70.2883 3.68518 67.8266C-1.3621 62.7793 -1.20508 54.4095 4.03508 49.1692C6.87028 46.3342 10.7699 44.8951 14.6171 45.1643V6.87948C14.6171 6.05062 15.172 5.32398 15.9718 5.10574L34.4433 0.0652549C35.4231 -0.201901 36.4336 0.375436 36.7011 1.35507C36.9685 2.3347 36.3909 3.34559 35.4113 3.61293L18.2944 8.28366V47.3155C18.2944 47.8833 18.032 48.4192 17.5836 48.7676C17.1351 49.1161 16.5506 49.2372 16.0007 49.0969C12.713 48.2569 9.1241 49.2808 6.63548 51.7696C2.82892 55.5762 2.6719 61.6128 6.28559 65.2265C8.02532 66.9661 10.3751 67.8926 12.9014 67.8389C15.4584 67.7832 17.8879 66.7311 19.7425 64.8764C21.6273 62.9916 22.6792 60.521 22.7044 57.9193C22.7048 57.8903 22.7057 57.8614 22.7073 57.8327V19.215Z" fill="#DFEFF8"/>
<path d="M63.6947 29.9983C64.1782 29.9983 64.6525 29.8034 64.9945 29.4596C65.3365 29.1176 65.5332 28.6451 65.5332 28.1597C65.5332 27.6761 65.3365 27.2018 64.9945 26.8598C64.6525 26.5178 64.1782 26.3211 63.6947 26.3211C63.2093 26.3211 62.7368 26.5178 62.3948 26.8598C62.0528 27.2018 61.8561 27.6761 61.8561 28.1597C61.8561 28.6451 62.0528 29.1176 62.3948 29.4596C62.7368 29.8034 63.2095 29.9983 63.6947 29.9983Z" fill="#DFEFF8"/>
<path d="M24.5742 14.6302C25.0577 14.6302 25.5321 14.4353 25.874 14.0915C26.216 13.7495 26.4127 13.277 26.4127 12.7916C26.4127 12.3081 26.216 11.8337 25.874 11.4918C25.5321 11.1498 25.0577 10.9531 24.5742 10.9531C24.0888 10.9531 23.6163 11.1498 23.2743 11.4918C22.9323 11.8337 22.7356 12.3081 22.7356 12.7916C22.7356 13.277 22.9323 13.7495 23.2743 14.0915C23.6163 14.4353 24.089 14.6302 24.5742 14.6302Z" fill="#DFEFF8"/>
</svg>