<svg width="25" height="25" viewBox="0 0 25 25" fill="none" xmlns="http://www.w3.org/2000/svg">
<path fill-rule="evenodd" clip-rule="evenodd" d="M13.4576 0.265689C13.2721 0.25077 13.0896 0.205078 12.9066 0.205078C12.5727 0.205078 12.2389 0.205078 11.9051 0.205078C11.0255 0.205078 10.126 0.419233 9.2691 0.659803C1.81608 2.74816 -1.80614 10.9962 1.70388 17.8997C1.97243 18.4275 2.01873 18.8726 1.82012 19.4299C1.26035 21.001 0.750609 22.5853 0.225333 24.1682C0.148251 24.4004 0.0966632 24.6388 0 25C0.353085 24.926 0.608883 24.8918 0.850385 24.816C2.50081 24.2947 4.15341 23.7803 5.79296 23.2271C6.3431 23.0412 6.80807 23.0698 7.34577 23.311C14.5346 26.5286 22.5542 22.6474 24.3349 15.0875C26.0353 7.86913 20.8783 0.853439 13.4576 0.265689ZM18.6989 16.4374C18.4275 17.5569 17.2157 18.3715 15.4397 18.3821C15.0857 18.2708 14.3879 18.0766 13.7085 17.8317C10.4449 16.6571 8.36494 14.2362 6.88266 11.229C6.20913 9.86238 6.24612 8.48392 7.19068 7.21705C7.37375 6.97181 7.60748 6.74088 7.86484 6.57894C8.6167 6.10682 9.46242 6.38841 9.79282 7.19684C10.0135 7.73642 10.1813 8.30054 10.4334 8.82426C10.7526 9.48816 10.5863 10.0097 10.1282 10.5309C9.45559 11.2959 9.47517 11.3204 10.0412 12.1879C10.8916 13.4918 12.0086 14.4901 13.3939 15.2031C13.8915 15.4592 14.2642 15.4253 14.6655 15.0005C15.8021 13.7976 15.8158 13.81 17.2664 14.5812C17.5427 14.7282 17.8165 14.8786 18.0894 15.03C18.8201 15.4365 18.8978 15.6171 18.6989 16.4374Z" fill="#481CC3"/>
</svg>