<svg width="100" height="100" viewBox="0 0 100 100" fill="none" xmlns="http://www.w3.org/2000/svg">
<path d="M99.4555 10.8441L89.1549 0.54373C88.4297 -0.181243 87.2545 -0.181243 86.5295 0.54373L72.878 14.1952C72.2791 14.7942 72.1766 15.7004 72.5674 16.4063L55.8596 33.1143C49.0618 27.1494 38.6756 27.4054 32.1909 33.89C31.3224 34.7586 30.5464 35.7179 29.885 36.7414C29.2462 37.7295 28.7042 38.7965 28.272 39.9158C27.08 43.0216 24.0313 45.1832 20.6864 45.2941C15.2428 45.4753 10.1231 47.697 6.27056 51.5495C2.2269 55.5932 1.31939e-06 60.9697 1.31939e-06 66.6881C-0.00197881 72.4057 2.22492 77.7825 6.27032 81.8279L18.1719 93.7292C22.2158 97.7729 27.5923 100 33.3112 100C39.0298 100 44.4065 97.7729 48.4505 93.7292C50.4039 91.7758 51.9382 89.5073 53.0119 86.9849C54.0465 84.5481 54.6163 81.9672 54.7059 79.3131C54.8168 75.9682 56.9784 72.9198 60.0842 71.7278C62.3495 70.858 64.3764 69.5387 66.108 67.8069C69.3777 64.5374 71.1806 60.1871 71.185 55.5546C71.1831 51.3085 69.6621 47.299 66.8859 44.1402L83.594 27.4321C83.8724 27.5861 84.1816 27.6645 84.4912 27.6645C84.9662 27.6645 85.4414 27.4833 85.8041 27.1207L99.4555 13.4692C100.18 12.7445 100.18 11.5688 99.4555 10.8441ZM49.7747 56.0011C49.1992 54.7479 48.4007 53.6002 47.4002 52.5998C46.3995 51.5993 45.2521 50.8008 43.9989 50.2256L75.1408 19.0834L80.9166 24.8592L49.7747 56.0011ZM67.4723 55.5541C67.4688 59.1936 66.0523 62.6128 63.4828 65.182C62.1213 66.5435 60.53 67.5799 58.7538 68.2618C54.203 70.0088 51.1578 74.2982 50.9952 79.1891C50.9214 81.3843 50.4501 83.5189 49.5955 85.5322C48.7094 87.6136 47.4408 89.4883 45.8253 91.1038C42.4829 94.4462 38.0385 96.287 33.3114 96.287C28.5841 96.287 24.14 94.4462 20.7975 91.1038L8.89596 79.2025C5.55203 75.8586 3.71125 71.4144 3.71298 66.6883C3.71298 61.961 5.55376 57.5169 8.89596 54.1744C12.08 50.9904 16.311 49.1543 20.8099 49.0046C25.7018 48.842 29.9915 45.7965 31.737 41.2489C32.0763 40.3698 32.502 39.5314 33.0025 38.7569C33.5225 37.953 34.1324 37.1988 34.8163 36.5149C37.3877 33.9435 40.8062 32.5275 44.4424 32.5275C47.6963 32.5275 50.7736 33.6646 53.228 35.7454L39.1743 49.7991C38.6771 50.2966 38.5035 51.0322 38.7261 51.6995C38.9488 52.3668 39.5297 52.8507 40.2263 52.9497C41.9596 53.1958 43.5326 53.9824 44.7749 55.2247C46.0176 56.4672 46.8042 58.0401 47.05 59.7735C47.1488 60.47 47.6327 61.0507 48.3002 61.2734C48.4928 61.3378 48.691 61.369 48.8878 61.369C49.3725 61.369 49.8469 61.1791 50.2009 60.8252L64.2543 46.7717C66.3337 49.2249 67.4708 52.3017 67.4723 55.5541ZM84.4912 23.1828L76.816 15.5078L87.8423 4.48146L95.5176 12.1567L84.4912 23.1828Z" fill="#DFEFF8"/>
<path d="M27.43 57.2726C23.2126 61.49 23.2126 68.3524 27.43 72.5698C29.5391 74.6786 32.3088 75.733 35.0788 75.733C37.8487 75.733 40.6187 74.6786 42.7275 72.5698C46.9449 68.3524 46.9449 61.49 42.7275 57.2726C38.5096 53.0551 31.6479 53.0551 27.43 57.2726ZM40.1021 69.9446C37.3326 72.7143 32.8251 72.7143 30.0554 69.9446C27.2855 67.1747 27.2855 62.6679 30.0554 59.898C31.4403 58.5131 33.2595 57.8206 35.0788 57.8206C36.898 57.8206 38.7172 58.5131 40.1021 59.898C42.872 62.6677 42.872 67.1747 40.1021 69.9446Z" fill="#DFEFF8"/>
<path d="M18.2589 71.7644C17.5336 71.0395 16.3584 71.0395 15.6335 71.7644C14.9085 72.4894 14.9085 73.6649 15.6335 74.3896L25.6098 84.3657C25.9724 84.7281 26.4477 84.9095 26.9226 84.9095C27.3976 84.9095 27.8729 84.7283 28.2355 84.3657C28.9604 83.6407 28.9604 82.4653 28.2355 81.7406L18.2589 71.7644Z" fill="#DFEFF8"/>
</svg>