<svg width="109" height="101" viewBox="0 0 109 101" fill="none" xmlns="http://www.w3.org/2000/svg">
<path d="M68.5508 80.8984C77.9418 80.8984 85.582 88.5387 85.582 97.9297C85.582 99.1053 86.5353 100.059 87.7109 100.059C88.8865 100.059 89.8398 99.1053 89.8398 97.9297C89.8398 88.5387 97.4801 80.8984 106.871 80.8984C108.047 80.8984 109 79.9451 109 78.7695C109 77.594 108.047 76.6406 106.871 76.6406C97.4801 76.6406 89.8398 69.0004 89.8398 59.6094C89.8398 58.4338 88.8865 57.4805 87.7109 57.4805C86.5353 57.4805 85.582 58.4338 85.582 59.6094C85.582 69.0004 77.9418 76.6406 68.5508 76.6406C67.3752 76.6406 66.4219 77.594 66.4219 78.7695C66.4219 79.9451 67.3752 80.8984 68.5508 80.8984ZM87.7109 68.8852C89.8007 73.1844 93.2959 76.6796 97.5952 78.7695C93.2961 80.8593 89.8009 84.3545 87.7109 88.6538C85.6212 84.3547 82.126 80.8595 77.8266 78.7695C82.126 76.6798 85.6212 73.1846 87.7109 68.8852Z" fill="#DFEFF8"/>
<path d="M2.12891 17.0312C7.9983 17.0312 12.7734 21.8064 12.7734 27.6758C12.7734 28.8514 13.7265 29.8047 14.9023 29.8047C16.0781 29.8047 17.0312 28.8514 17.0312 27.6758C17.0312 21.8064 21.8064 17.0312 27.6758 17.0312C28.8516 17.0312 29.8047 16.0779 29.8047 14.9023C29.8047 13.7268 28.8516 12.7734 27.6758 12.7734C21.8064 12.7734 17.0312 7.9983 17.0312 2.12891C17.0312 0.953324 16.0781 0 14.9023 0C13.7265 0 12.7734 0.953324 12.7734 2.12891C12.7734 7.9983 7.9983 12.7734 2.12891 12.7734C0.953111 12.7734 0 13.7268 0 14.9023C0 16.0779 0.953111 17.0312 2.12891 17.0312ZM14.9023 9.79808C16.1612 11.8865 17.9181 13.6437 20.0064 14.9023C17.9179 16.1609 16.1609 17.9181 14.9023 20.0066C13.6435 17.9181 11.8865 16.1609 9.79829 14.9023C11.8865 13.6437 13.6435 11.8865 14.9023 9.79808Z" fill="#DFEFF8"/>
<path d="M59.3963 60.2481C60.5721 60.2481 61.5252 59.295 61.5252 58.1192C61.5252 56.9434 60.5721 55.9903 59.3963 55.9903C58.2206 55.9903 57.2674 56.9434 57.2674 58.1192C57.2674 59.295 58.2206 60.2481 59.3963 60.2481Z" fill="#DFEFF8"/>
<path d="M65.0762 53.264C65.6759 54.275 66.9824 54.6084 67.9934 54.0083C73.5537 50.7089 79.9302 48.9649 86.4338 48.9649C87.6094 48.9649 88.5627 48.0116 88.5627 46.836C88.5627 45.6604 87.6094 44.7071 86.4338 44.7071C66.4778 44.7071 50.2424 28.4716 50.2424 8.51567C50.2424 7.34009 49.2893 6.38676 48.1135 6.38676C46.9377 6.38676 45.9846 7.34009 45.9846 8.51567C45.9846 28.4716 29.7491 44.7071 9.79317 44.7071C8.61737 44.7071 7.66426 45.6604 7.66426 46.836C7.66426 48.0116 8.61737 48.9649 9.79317 48.9649C29.7491 48.9649 45.9846 65.2003 45.9846 85.1563C45.9846 86.3319 46.9377 87.2852 48.1135 87.2852C49.2893 87.2852 50.2424 86.3319 50.2424 85.1563C50.2424 78.6527 51.9864 72.2762 55.2858 66.7159C55.8857 65.7047 55.5525 64.3986 54.5415 63.7987C53.5296 63.1981 52.224 63.5319 51.6242 64.5429C50.1843 66.9695 49.0095 69.5342 48.112 72.1923C44.0771 60.2968 34.6488 50.8698 22.7529 46.836C34.6501 42.8017 44.0792 33.3726 48.1135 21.4754C52.1473 33.3713 61.5743 42.7996 73.4696 46.8345C70.8117 47.732 68.247 48.9068 65.8202 50.3467C64.8094 50.9469 64.476 52.2528 65.0762 53.264Z" fill="#DFEFF8"/>
</svg>