<svg width="26" height="25" viewBox="0 0 26 25" fill="none" xmlns="http://www.w3.org/2000/svg">
<path d="M8.44066 13.5858C8.92926 13.7819 9.27738 13.703 9.70319 13.4332C11.8201 12.092 13.9561 10.7807 16.092 9.46938C16.2402 9.37831 16.4404 9.37241 16.6169 9.3264C16.5361 9.48274 16.4615 9.64188 16.3729 9.79356C16.3391 9.85199 16.2747 9.89239 16.2238 9.94057C14.6116 11.4412 13.0121 12.9558 11.3797 14.4334C10.9486 14.8232 10.6869 15.2328 10.6353 15.8153C10.5781 16.4568 10.4535 17.0921 10.3419 17.839C11.1 17.1508 11.7701 16.5423 12.448 15.9272C12.5552 16.0058 12.6457 16.0708 12.7336 16.1382C13.7463 16.914 14.7558 17.6932 15.7715 18.4643C16.1504 18.7515 16.2548 18.7065 16.3422 18.2598C16.8933 15.46 17.4459 12.6608 17.9951 9.861C18.1639 9.00098 18.3252 8.14002 18.5067 7.19421C14.1876 9.01279 9.94811 10.7984 5.61163 12.6245C6.62427 12.9617 7.55049 13.2287 8.44066 13.5858Z" fill="#481CC3"/>
<path d="M13.1421 0.0102539C6.24853 0.0102539 0.6604 5.59839 0.6604 12.4919C0.6604 19.3858 6.24853 24.9739 13.1421 24.9739C20.0356 24.9739 25.6238 19.3858 25.6238 12.4919C25.6238 5.5987 20.0356 0.0102539 13.1421 0.0102539ZM19.4681 8.45539C18.802 11.8629 18.1421 15.2712 17.4649 18.6762C17.2517 19.7479 16.0979 20.184 15.218 19.5319C14.3176 18.8639 13.437 18.1677 12.5173 17.4606C11.9927 17.9383 11.4991 18.3958 10.9962 18.844C10.286 19.4769 9.57828 19.31 9.27399 18.4058C8.90816 17.3192 8.57621 16.2205 8.25856 15.1183C8.16967 14.8087 8.01365 14.6639 7.71433 14.5728C6.9519 14.3413 6.20067 14.0743 5.44477 13.8213C5.35183 13.7899 5.25734 13.7616 5.16876 13.7206C4.69695 13.503 4.3193 13.1826 4.30376 12.6309C4.28791 12.0677 4.66337 11.7432 5.14513 11.5399C9.39956 9.74527 13.6577 7.95747 17.9112 6.1591C19.0839 5.66304 19.7372 6.43012 19.6947 7.17514C19.6707 7.60469 19.5508 8.02958 19.4681 8.45539Z" fill="#481CC3"/>
</svg>