<svg width="96" height="98" viewBox="0 0 96 98" fill="none" xmlns="http://www.w3.org/2000/svg">
<path d="M48.0004 97.965C74.491 97.965 95.9658 76.4901 95.9658 49.9996C95.9658 23.509 74.491 2.03418 48.0004 2.03418C21.5099 2.03418 0.0350342 23.509 0.0350342 49.9996C0.0350342 76.4901 21.5099 97.965 48.0004 97.965Z" fill="#DFEFF8"/>
<path d="M65.5164 83.9037C64.3696 83.9037 63.2926 83.4581 62.485 82.6505L58.5361 78.7017C56.8678 77.0307 56.8678 74.3133 58.5353 72.6432L76.2659 54.9143C77.0735 54.1067 78.1488 53.6628 79.2956 53.6628C80.4424 53.6628 81.5177 54.1068 82.3252 54.9134L86.275 58.8632C87.945 60.5332 87.945 63.2507 86.2758 64.9225L68.5469 82.6505C67.7403 83.4581 66.6632 83.9037 65.5164 83.9037ZM79.2956 56.7152C78.9642 56.7152 78.6554 56.8425 78.4243 57.0728L60.6946 74.7999C60.215 75.2804 60.2149 76.0627 60.6955 76.5441L64.6443 80.4921C65.1074 80.9534 65.9263 80.9534 66.3876 80.4921L84.1165 62.7641C84.5971 62.2835 84.5971 61.5013 84.1165 61.0207L80.1668 57.0719C79.9357 56.8416 79.6261 56.7152 79.2956 56.7152Z" fill="#5A68D3"/>
<path d="M30.4842 84.201C29.3374 84.201 28.2613 83.7562 27.4546 82.9478L9.72572 65.2198C8.05478 63.5506 8.0548 60.8323 9.72486 59.1604L13.6772 55.2107C14.483 54.404 15.5583 53.9592 16.706 53.9592C17.8537 53.9592 18.929 54.404 19.7357 55.2107L37.4645 72.9405C38.2721 73.7472 38.7169 74.8224 38.7169 75.9701C38.7169 77.1161 38.2721 78.1922 37.4645 78.9998L33.5148 82.9495C32.7073 83.7562 31.6311 84.201 30.4842 84.201ZM16.706 57.0116C16.3746 57.0116 16.0668 57.1389 15.8365 57.3683L11.8841 61.318C11.4036 61.7994 11.4036 62.5808 11.8841 63.0604L29.6139 80.7902C30.0761 81.2516 30.8959 81.2516 31.3563 80.7902L35.3061 76.8396C35.5372 76.6085 35.6637 76.2998 35.6637 75.9692C35.6637 75.6378 35.5364 75.3291 35.3061 75.0989L17.5764 57.3683C17.3452 57.138 17.0374 57.0116 16.706 57.0116Z" fill="#5A68D3"/>
<path d="M35.607 74.7657C35.2294 74.7657 34.8518 74.6271 34.5561 74.3462C33.9448 73.7663 33.9204 72.8009 34.5012 72.1887L40.7795 65.5773C40.8231 65.5311 40.8693 65.4875 40.9181 65.4482C41.1885 65.2276 43.6321 63.3002 46.4708 63.6857C48.3763 63.9447 50.608 64.0651 51.1339 64.0904C51.5002 64.0389 53.3307 63.7136 54.9161 62.1656C56.4336 60.6831 69.1261 47.7682 70.061 46.8167C70.3288 46.4662 71.0116 45.3106 69.802 43.9371C68.6569 42.6342 67.2842 43.2926 66.7758 43.6144L65.0552 45.2583C64.4517 45.8339 63.4994 45.8199 62.9142 45.226C62.329 44.6321 62.3281 43.6789 62.9124 43.0841C63.9493 42.0298 65.9665 40.0065 66.4034 39.5678C66.6581 39.1885 67.2249 38.0408 66.0153 36.6655C64.8432 35.3329 63.543 36.0603 63.1636 36.3219L61.422 37.9859C60.8194 38.5614 59.8653 38.5466 59.281 37.9536C58.6958 37.3597 58.6949 36.4065 59.2792 35.8117C60.3258 34.7478 61.5188 33.6472 61.8179 33.3733C62.1118 33.0149 62.84 31.8768 61.6662 30.5442C60.522 29.2439 59.3473 29.6006 58.8589 29.8361L56.7737 31.8567C56.1676 32.4419 55.2031 32.4271 54.6153 31.8227C54.0284 31.2184 54.0441 30.2512 54.6493 29.6643L54.665 29.6486L56.8845 27.4971C56.8906 27.491 56.8967 27.4849 56.9028 27.4788L57.5909 26.8108C57.8508 26.3931 58.5136 25.0561 57.304 23.8491C56.1223 22.6683 55.0217 23.3102 54.5699 23.6721L48.7303 29.4541C48.1303 30.048 47.1649 30.0437 46.5719 29.4436C45.978 28.8436 45.9833 27.8782 46.5824 27.2852L52.4708 21.4552C52.4926 21.4334 52.5161 21.4116 52.5388 21.3916C53.956 20.1506 56.9691 19.2035 59.4606 21.6881C61.1019 23.3276 61.2546 25.1948 60.9058 26.6678C61.9209 26.8771 62.9883 27.4239 63.9572 28.5253C65.2959 30.0463 65.5269 31.5986 65.2889 32.8919C66.2996 33.0524 67.3505 33.5617 68.3055 34.6466C70.1011 36.6882 69.9956 38.8109 69.4523 40.2507C70.3532 40.4731 71.2645 40.9798 72.0913 41.9199C74.5584 44.7211 73.348 47.6565 72.3642 48.8173C72.3398 48.8452 72.3145 48.8731 72.2883 48.9002C71.7319 49.4661 58.6366 62.7944 57.045 64.3476C54.454 66.8776 51.4208 67.1314 51.2917 67.141C51.2333 67.1453 51.1731 67.1462 51.1121 67.1436C51.0004 67.1392 48.3589 67.0215 46.0557 66.7093C44.8173 66.5445 43.4045 67.3817 42.9144 67.7549L36.7093 74.2887C36.4137 74.607 36.0108 74.7657 35.607 74.7657Z" fill="#5A68D3"/>
<path d="M18.9945 58.1528C18.6099 58.1528 18.2245 58.008 17.9271 57.7176C17.3253 57.1281 17.314 56.1627 17.9036 55.5592L24.7068 48.6016C25.2954 47.9981 26.2609 47.9885 26.8653 48.578C27.467 49.1676 27.4783 50.133 26.8888 50.7365L20.0856 57.6941C19.7864 58.0002 19.3905 58.1528 18.9945 58.1528Z" fill="#5A68D3"/>
<path d="M60.2473 74.6145C59.8575 74.6145 59.4659 74.4654 59.1686 74.168L51.4112 66.4168C50.8147 65.8203 50.8147 64.854 51.4104 64.2575C52.0069 63.661 52.9731 63.6618 53.5697 64.2566L61.327 72.0078C61.9235 72.6043 61.9235 73.5706 61.3278 74.1671C61.0287 74.4654 60.638 74.6145 60.2473 74.6145Z" fill="#5A68D3"/>
<path d="M76.4135 58.1529C76.0254 58.1529 75.6365 58.0055 75.3391 57.7108L68.3213 50.7532C67.723 50.1593 67.7195 49.193 68.3117 48.5939C68.9073 47.9965 69.8719 47.993 70.471 48.5843L77.4888 55.5419C78.087 56.1358 78.0905 57.1021 77.4983 57.7012C77.1983 58.0021 76.8059 58.1529 76.4135 58.1529Z" fill="#5A68D3"/>
<path d="M28.7795 52.6513C27.501 52.6513 26.2931 52.1638 25.3791 51.2804L23.3969 49.3679C22.4585 48.4618 21.9283 47.2417 21.9047 45.931C21.8812 44.6202 22.3669 43.3809 23.273 42.4434L23.9132 41.7798C24.8411 40.8178 26.0934 40.2876 27.4373 40.2876C28.715 40.2876 29.9228 40.7742 30.8376 41.6568L32.8217 43.5702C34.7638 45.4478 34.8179 48.5542 32.9446 50.4955L32.3028 51.1592C31.3897 52.1071 30.1042 52.6513 28.7795 52.6513ZM27.4373 43.3391C26.9289 43.3391 26.4571 43.5388 26.11 43.899L25.469 44.5635C25.1297 44.9141 24.9475 45.3807 24.9562 45.876C24.9658 46.3705 25.1638 46.8318 25.517 47.1711L27.5001 49.0845C28.2056 49.7664 29.4292 49.7429 30.1077 49.0391L30.7495 48.3755C31.4551 47.6438 31.4341 46.4725 30.7016 45.7653L28.7193 43.8536C28.3748 43.5222 27.9196 43.3391 27.4373 43.3391Z" fill="#5A68D3"/>
<path d="M34.3415 47.3363C33.0639 47.3363 31.8561 46.8497 30.9412 45.9663L26.0906 41.2866C24.1476 39.4107 24.0935 36.3043 25.9685 34.3621L26.6087 33.6985C27.5366 32.7357 28.7889 32.2063 30.1328 32.2063C31.4104 32.2063 32.6183 32.6929 33.5323 33.5755L38.3828 38.2569C40.3267 40.1319 40.3808 43.2392 38.5049 45.1814L37.864 45.8442C36.9369 46.8061 35.6855 47.3363 34.3415 47.3363ZM30.1337 35.2578C29.6261 35.2578 29.1543 35.4566 28.8064 35.8176L28.1653 36.4822C27.4589 37.2139 27.4799 38.3834 28.2116 39.0898L33.0622 43.7695C33.7695 44.4523 34.9913 44.4288 35.6698 43.7241L36.3116 43.0604C37.018 42.3288 36.9971 41.1584 36.2645 40.452L31.4139 35.7706C31.0703 35.44 30.6159 35.2578 30.1337 35.2578Z" fill="#5A68D3"/>
<path d="M39.6431 41.7847C38.3655 41.7847 37.1577 41.2981 36.2437 40.4155L30.3527 34.7286C29.4143 33.8225 28.8841 32.6024 28.8614 31.2917C28.8387 29.9809 29.3245 28.7425 30.2306 27.805L30.8698 27.1413C31.7986 26.1785 33.051 25.6492 34.3949 25.6492C35.6725 25.6492 36.8803 26.1358 37.7943 27.0184L43.6845 32.7053C44.6229 33.6105 45.1531 34.8315 45.1766 36.1414C45.1993 37.4521 44.7135 38.6905 43.8083 39.6289L43.1673 40.2934C42.2385 41.2545 40.987 41.7847 39.6431 41.7847ZM34.3949 28.7015C33.8864 28.7015 33.4146 28.9004 33.0666 29.2614L32.4274 29.9251C32.0864 30.2774 31.9041 30.7431 31.9129 31.2393C31.9224 31.7338 32.1204 32.1943 32.4728 32.5335L38.3638 38.2205C39.0693 38.899 40.2937 38.8772 40.9722 38.1734L41.6123 37.5097C41.9516 37.1582 42.1347 36.6917 42.1251 36.1963C42.1164 35.701 41.9185 35.2414 41.5653 34.9021L35.6743 29.2152C35.3315 28.8838 34.8771 28.7015 34.3949 28.7015Z" fill="#5A68D3"/>
<path d="M45.0162 36.3845C43.7377 36.3845 42.5299 35.8978 41.6159 35.0153L34.3338 27.9862C32.3917 26.112 32.3377 23.0047 34.2118 21.0626L34.8493 20.3998C35.7667 19.4501 37.0504 18.9067 38.376 18.9067C39.6545 18.9067 40.8624 19.3934 41.7763 20.2759C41.8679 20.3649 41.9482 20.4643 42.0153 20.5733C42.0328 20.6012 43.7604 23.4007 44.827 24.6914C45.5499 25.567 47.5008 26.5629 48.5613 26.985C48.7453 27.0582 48.9144 27.1673 49.0575 27.305C50.9988 29.1792 51.0537 32.2847 49.1813 34.2278L48.5404 34.8932C47.6255 35.8411 46.3409 36.3845 45.0162 36.3845ZM38.3769 21.9591C37.8685 21.9591 37.3958 22.1579 37.0478 22.519L36.4112 23.1809C35.7031 23.9143 35.724 25.0847 36.4557 25.7911L43.7377 32.8202C44.4406 33.4987 45.6685 33.4777 46.347 32.7731L46.9871 32.1094C47.6334 31.4379 47.67 30.3966 47.1066 29.685C46.1795 29.2873 43.715 28.1353 42.4767 26.637C41.4371 25.3795 39.9641 23.051 39.5368 22.3655C39.2106 22.1021 38.8043 21.9591 38.3769 21.9591Z" fill="#5A68D3"/>
<path d="M54.3859 23.5427C54.1225 23.5427 53.8565 23.4746 53.6132 23.3316C53.5486 23.2967 52.2789 22.6235 48.7312 21.9319C44.7849 21.1601 43.0503 20.9508 43.0338 20.9491C42.9744 20.9412 42.9134 20.9307 42.855 20.9168C42.2689 20.7921 41.8896 20.9761 41.7439 21.461C41.5015 22.2685 40.6494 22.7246 39.8427 22.4831C39.0352 22.2406 38.5782 21.3895 38.8207 20.5819C39.582 18.0519 41.9829 17.6072 43.4759 17.9281C43.8753 17.9787 45.6745 18.2246 49.3164 18.9354C53.4501 19.7429 54.9292 20.5584 55.183 20.7145C55.9025 21.154 56.1292 22.0932 55.6897 22.8119C55.4019 23.2828 54.9004 23.5427 54.3859 23.5427Z" fill="#5A68D3"/>
<path d="M47.8075 9.83433C47.3253 9.83433 46.9354 9.4445 46.9354 8.96223V1.60696C46.9354 1.12469 47.3253 0.734863 47.8075 0.734863C48.2898 0.734863 48.6796 1.12469 48.6796 1.60696V8.96223C48.6796 9.4445 48.2898 9.83433 47.8075 9.83433Z" fill="#5A68D3"/>
<path d="M67.4744 13.6635C67.2573 13.6635 67.0401 13.5832 66.8718 13.421C66.5238 13.0879 66.5116 12.5359 66.8457 12.1888L71.9335 6.87767C72.2675 6.5297 72.8195 6.51749 73.1658 6.85151C73.5137 7.18465 73.5259 7.73669 73.1919 8.08379L68.1041 13.3949C67.9323 13.5728 67.7038 13.6635 67.4744 13.6635Z" fill="#5A68D3"/>
<path d="M28.4052 13.5859C28.1828 13.5859 27.9604 13.5013 27.7903 13.3322L22.2185 7.79086C21.8766 7.45074 21.8749 6.89957 22.215 6.55771C22.5551 6.21672 23.1063 6.21409 23.4481 6.55421L29.02 12.0955C29.3619 12.4356 29.3636 12.9868 29.0235 13.3287C28.8534 13.4996 28.6293 13.5859 28.4052 13.5859Z" fill="#5A68D3"/>
</svg>
