<svg width="120" height="115" viewBox="0 0 120 115" fill="none" xmlns="http://www.w3.org/2000/svg">
<path d="M28.4209 64.9798C29.1588 65.1793 31.7906 65.7794 34.6649 65.121C37.7085 64.4234 40.0325 62.593 41.5139 59.6615C44.372 54.0058 46.9332 53.8506 48.3206 54.2885L48.3137 54.3106L48.6281 54.41L48.3613 54.6728C48.3553 54.6794 47.7042 55.3433 47.1367 56.3731C46.6208 57.3087 46.0728 58.7378 46.3834 60.2505C46.7385 61.9797 48.0773 64.0192 50.2699 64.7115C50.2889 64.717 50.3084 64.7219 50.3274 64.7274M7 64.8435C7.73788 65.0429 10.3697 65.6431 13.244 64.9847C16.2876 64.2871 18.6116 62.4567 20.093 59.5252C22.9511 53.8695 25.5123 53.7143 26.8997 54.1522L26.8928 54.1742L27.2072 54.2737L26.9404 54.5365C26.9344 54.543 26.2833 55.207 25.7158 56.2367C25.1999 57.1723 24.6519 58.6015 24.9625 60.1142C25.3176 61.8434 26.6564 63.8828 28.849 64.5751C28.868 64.5807 28.8875 64.5855 28.9065 64.5911M50.3404 64.7624C51.0785 64.9618 53.7101 65.562 56.5844 64.9039C59.6278 64.2062 61.9376 62.3715 63.4192 59.44C66.277 53.7838 68.8241 53.6241 70.2115 54.062L70.2148 54.0524L70.5575 54.1607L70.2856 54.4394C70.2796 54.446 69.6262 55.1186 69.0584 56.1483C68.5426 57.0839 67.9933 58.5161 68.3041 60.0296C68.6593 61.7587 69.9973 63.8 72.1899 64.492C72.2087 64.4979 72.2277 64.5037 72.2469 64.5095M72.2677 64.4186C73.0053 64.6178 75.6373 65.218 78.5111 64.5598C81.5545 63.8627 83.8644 62.0278 85.3457 59.096C88.2038 53.44 90.7511 53.2803 92.1385 53.7182L92.1418 53.7086L92.4848 53.8169L92.2126 54.0956C92.2066 54.1022 91.5535 54.7748 90.9855 55.8043C90.4696 56.7401 89.9203 58.1723 90.2311 59.6858C90.5863 61.4147 91.9241 63.4562 94.117 64.1483C94.1359 64.1541 94.1552 64.1599 94.1744 64.1655M94.0934 64.273C94.831 64.4725 97.4628 65.0726 100.337 64.4142C103.38 63.7171 105.69 61.8822 107.171 58.9504C110.03 53.2944 112.577 53.1347 113.964 53.5729L113.967 53.5633L114.31 53.6713L114.038 53.95C114.032 53.9569 113.379 54.6292 112.811 55.6587C112.295 56.5945 111.746 58.0267 112.057 59.5402C112.412 61.2693 113.75 63.3106 115.943 64.0026C115.962 64.0087 115.981 64.0145 116 64.0201M22.6008 89.8953C23.3387 90.0948 25.9705 90.6949 28.8446 90.0368C31.8882 89.3392 34.2122 87.5085 35.6935 84.5772C38.5517 78.9213 41.1131 78.7661 42.5005 79.204L42.4937 79.2263L42.8081 79.3258L42.5413 79.5883C42.5349 79.5949 41.8841 80.2591 41.3166 81.2888C40.8007 82.2244 40.2527 83.6533 40.5633 85.166C40.9184 86.8954 42.257 88.9349 44.4499 89.627C44.4689 89.6328 44.4881 89.6376 44.5073 89.6432M1 89.8435C1.73788 90.043 4.36969 90.6432 7.24374 89.985C10.2874 89.2874 12.6114 87.4567 14.0927 84.5255C16.9508 78.8695 19.5123 78.7143 20.8997 79.1523L20.8928 79.1745L21.2072 79.274L20.9404 79.5365C20.9341 79.5431 20.2833 80.2073 19.7158 81.237C19.1999 82.1726 18.6519 83.6015 18.9625 85.1143C19.3176 86.8437 20.6562 88.8831 22.849 89.5752C22.868 89.581 22.8873 89.5858 22.9065 89.5914M44.5201 89.6777C45.2583 89.8771 47.8898 90.4773 50.7641 89.8194C53.8075 89.1218 56.1174 87.2868 57.5989 84.3556C60.4568 78.6993 63.0038 78.5394 64.3912 78.9775L64.3942 78.9679L64.7372 79.0763L64.4651 79.355C64.4588 79.3615 63.8057 80.0339 63.2379 81.0636C62.7221 81.9992 62.1728 83.4314 62.4836 84.9449C62.8388 86.6743 64.1768 88.7153 66.3697 89.4073C66.3884 89.4131 66.4074 89.4192 66.4266 89.4248M66.4471 89.3342C67.185 89.5336 69.8168 90.1338 72.6904 89.4757C75.7343 88.7783 78.0441 86.9433 79.5254 84.0116C82.3833 78.3556 84.9306 78.1959 86.318 78.634L86.3213 78.6244L86.6643 78.7325L86.3921 79.0112C86.3861 79.018 85.733 79.6904 85.1649 80.7201C84.6493 81.6557 84.1 83.0882 84.4106 84.6014C84.7658 86.3305 86.1038 88.3718 88.2964 89.0638C88.3154 89.0699 88.3347 89.0757 88.3539 89.0813M88.2729 89.1889C89.0105 89.3881 91.6426 89.9883 94.5161 89.3302C97.5598 88.633 99.8696 86.7981 101.351 83.8663C104.209 78.2104 106.756 78.0504 108.144 78.4885L108.147 78.4789L108.49 78.587L108.218 78.866C108.212 78.8725 107.559 79.5451 106.991 80.5746C106.475 81.5104 105.926 82.9427 106.236 84.4561C106.591 86.185 107.929 88.2265 110.122 88.9186C110.141 88.9244 110.16 88.9302 110.18 88.9358M21 111.285C21.7378 111.484 24.3697 112.084 27.244 111.426C30.2876 110.729 32.6116 108.898 34.0929 105.967C36.9508 100.311 39.5122 100.156 40.8997 100.593L40.8928 100.616L41.2072 100.715L40.9404 100.978C40.9343 100.984 40.2833 101.649 39.7158 102.678C39.1999 103.614 38.6518 105.043 38.9624 106.556C39.3176 108.285 40.6564 110.324 42.849 111.016C42.868 111.022 42.8872 111.027 42.9065 111.033M42.9195 111.067C43.6576 111.267 46.2892 111.867 49.1635 111.209C52.2069 110.511 54.5167 108.676 55.9983 105.745C58.8562 100.089 61.4032 99.9289 62.7906 100.367L62.7939 100.357L63.1369 100.466L62.865 100.745C62.8587 100.751 62.2056 101.423 61.6378 102.453C61.1219 103.389 60.5726 104.821 60.8835 106.334C61.2386 108.064 62.5767 110.105 64.7693 110.797C64.788 110.803 64.807 110.809 64.8263 110.814M64.8465 110.724C65.5844 110.923 68.2162 111.523 71.09 110.865C74.1334 110.168 76.4435 108.333 77.9248 105.401C80.7827 99.7451 83.3299 99.5853 84.7174 100.023L84.7206 100.014L85.0636 100.122L84.7918 100.401C84.7854 100.407 84.1324 101.08 83.5646 102.11C83.0487 103.045 82.4992 104.478 82.81 105.991C83.1651 107.72 84.5032 109.761 86.6958 110.453C86.7148 110.459 86.734 110.465 86.7535 110.471" stroke="white" stroke-width="6" stroke-miterlimit="10"/>
<path d="M45 62.7806L74.3967 64.046V17.8515L45.0385 64.046M58.9557 42.1046H74.3967M76.8214 65.1008L102.508 62.1478C102.508 62.1478 104.196 41.0541 96.813 29.4531C89.4304 17.8516 75.9307 8.35938 75.9307 8.35938C75.9307 8.35938 79.8692 28.2006 79.3057 38.523C78.583 51.7595 76.8214 65.1008 76.8214 65.1008ZM75.9156 1.18743C75.9156 1.18743 69.9667 0.765713 66.17 1.18743C62.3733 1.6094 57.6901 2.6642 57.6901 2.6642V4.89429H52.9386C52.9386 4.89429 57.3684 6.91934 58.634 6.91934C59.8997 6.91934 62.8527 6.91934 62.8527 6.91934L62.6419 3.95998C62.6419 3.95998 66.2201 2.85506 69.5954 4.00352C72.9701 5.15172 75.9156 6.25006 75.9156 6.25006V1.18743ZM49.1419 79.2334L45.9777 71.0071L80.3601 66.3665L107.782 64.046C107.782 64.046 103.141 69.9523 100.399 73.3273C97.6568 76.7023 96.602 79.2334 96.602 79.2334C96.602 79.2334 88.7974 75.8586 80.9929 77.546C73.1883 79.2334 56.3136 82.1867 49.1419 79.2334ZM93.6487 71.1125C93.6487 72.4522 92.6758 73.5383 91.4756 73.5383C90.2754 73.5383 89.3024 72.4522 89.3024 71.1125C89.3024 69.7728 90.2754 68.6868 91.4756 68.6868C92.6758 68.6868 93.6487 69.7728 93.6487 71.1125Z" stroke="#5A68D3" stroke-width="2" stroke-miterlimit="10"/>
</svg>