<svg width="96" height="96" viewBox="0 0 96 96" fill="none" xmlns="http://www.w3.org/2000/svg">
<path d="M48.0004 95.965C74.491 95.965 95.9658 74.4901 95.9658 47.9996C95.9658 21.509 74.491 0.0341797 48.0004 0.0341797C21.5099 0.0341797 0.0350342 21.509 0.0350342 47.9996C0.0350342 74.4901 21.5099 95.965 48.0004 95.965Z" fill="#DFEFF8"/>
<path d="M59.7355 30.7301H41.3299C40.0444 30.7301 38.9996 29.6862 38.9996 28.4016V25.2542C38.9996 23.9696 40.0444 22.9248 41.3299 22.9248H59.7355C61.0201 22.9248 62.064 23.9696 62.064 25.2542V28.4016C62.064 29.6862 61.0201 30.7301 59.7355 30.7301ZM41.329 24.669C41.0063 24.669 40.743 24.9315 40.743 25.2542V28.4016C40.743 28.7234 41.0063 28.9859 41.329 28.9859H59.7346C60.0564 28.9859 60.319 28.7234 60.319 28.4016V25.2542C60.319 24.9376 60.0512 24.669 59.7346 24.669H41.329Z" fill="#5A68D3"/>
<path d="M65.657 79.5702H25.1393C23.123 79.5702 21.9221 78.7653 21.2689 78.0903C19.8195 76.5911 19.8439 74.5775 19.8518 74.3525L19.8509 31.9162C19.8509 28.8612 21.4076 27.0725 21.5846 26.8798C21.9309 26.5266 29.1972 19.146 30.4321 18.035C32.0001 16.6231 34.599 16.4478 34.8903 16.4312L65.1983 16.4294C67.1152 16.4294 68.2733 17.2135 68.9082 17.871C70.3899 19.4094 70.3567 21.5382 70.348 21.7763L70.3489 37.8639H67.2966V21.7196C67.3027 21.3795 67.205 20.4926 66.7 19.9789C66.3704 19.644 65.8794 19.4818 65.1974 19.4818H34.9705C34.4734 19.5132 33.0763 19.76 32.4737 20.3033C31.5388 21.144 26.3899 26.3461 23.798 28.9798C23.8024 28.9798 22.9033 30.049 22.9033 31.9153V74.403C22.9024 74.4475 22.8998 75.399 23.4762 75.9815C23.8286 76.3373 24.3885 76.5179 25.1393 76.5179H65.2018C65.9657 76.2484 67.2965 75.5507 67.2957 74.7676V68.6411H70.348V74.7667C70.3498 77.492 67.5303 79.0313 65.8628 79.5101L65.657 79.5702Z" fill="#5A68D3"/>
<path d="M52.4351 39.022H27.9309V40.7662H52.4351V39.022Z" fill="#5A68D3"/>
<path d="M52.4351 45.4197H27.9309V47.1639H52.4351V45.4197Z" fill="#5A68D3"/>
<path d="M52.4351 51.8157H27.9309V53.5599H52.4351V51.8157Z" fill="#5A68D3"/>
<path d="M53.0639 58.2124H28.5597V59.9566H53.0639V58.2124Z" fill="#5A68D3"/>
<path d="M40.183 67.5884H28.5597V69.3326H40.183V67.5884Z" fill="#5A68D3"/>
<path d="M31.7194 30.4656H21.3755V28.7214H31.7194C32.036 28.7214 32.3038 28.4528 32.3038 28.1353V18.2815H34.048V28.1353C34.048 29.4208 33.004 30.4656 31.7194 30.4656Z" fill="#5A68D3"/>
<path d="M68.8219 65.2033C67.9332 65.2033 67.0786 64.8056 66.4768 64.1115L66.1158 63.6963C65.9527 63.5088 65.5402 63.317 65.126 63.317C65.0187 63.317 64.9201 63.3309 64.8469 63.3562L64.3263 63.535C63.9818 63.6536 63.6277 63.7138 63.2728 63.7138C61.7867 63.7138 60.5483 62.6742 60.2623 61.1856L60.1576 60.6492C60.0852 60.2777 59.6012 59.7928 59.2314 59.7213L58.6864 59.6158C57.7855 59.4405 57.0137 58.8998 56.5698 58.1306C56.125 57.3614 56.0422 56.4222 56.3396 55.5527L56.5218 55.0268C56.6431 54.6736 56.4652 54.0099 56.18 53.7623L55.7649 53.4021C55.0698 52.7986 54.6721 51.9422 54.6721 51.0544C54.6721 50.1666 55.0707 49.3119 55.7649 48.7093L56.1791 48.3491C56.4643 48.1006 56.6422 47.4369 56.5201 47.0794L56.3413 46.5622C56.0413 45.6893 56.125 44.75 56.5689 43.9817C57.0128 43.2125 57.7838 42.6709 58.6855 42.4948L59.2341 42.3901C59.5995 42.3186 60.0852 41.8328 60.1576 41.4639L60.2631 40.9206C60.5518 39.4346 61.7893 38.3959 63.2736 38.3959C63.6268 38.3959 63.9818 38.4561 64.3245 38.5738L64.8504 38.7561C64.9184 38.7787 65.0178 38.7936 65.1251 38.7936C65.5393 38.7936 65.9518 38.6017 66.1132 38.416L66.4777 37.9973C67.0795 37.304 67.935 36.9072 68.8219 36.9072C69.7088 36.9072 70.5644 37.304 71.167 37.9965L71.5315 38.4168C71.6911 38.6008 72.1054 38.7936 72.5205 38.7936C72.6269 38.7936 72.7254 38.7788 72.7978 38.7543L73.3185 38.5747C73.6638 38.4561 74.0179 38.3959 74.3711 38.3959C75.8528 38.3959 77.0911 39.4328 77.3824 40.9189L77.488 41.4631C77.5603 41.8337 78.0461 42.3186 78.4158 42.391L78.9531 42.4939C79.8601 42.6709 80.6327 43.2134 81.0766 43.9834C81.5205 44.7526 81.6025 45.6919 81.3025 46.5605L81.1211 47.0837C80.9999 47.4369 81.1778 48.1006 81.463 48.3483L81.879 48.7085C82.574 49.312 82.9726 50.1666 82.9726 51.0544C82.9726 51.9422 82.5749 52.7986 81.8807 53.4012L81.4612 53.7649C81.1795 54.0099 81.0017 54.6736 81.1237 55.0312L81.3025 55.5483C81.6034 56.4195 81.5205 57.3597 81.0766 58.1289C80.6327 58.8989 79.86 59.4405 78.9565 59.6158L78.4168 59.7213C78.0444 59.7928 77.5612 60.2786 77.4888 60.6475L77.3833 61.1899C77.092 62.6768 75.8545 63.7147 74.3728 63.7147C74.0179 63.7147 73.6638 63.6545 73.3193 63.5359L72.7987 63.3571C72.7246 63.3318 72.626 63.3178 72.5196 63.3178C72.1062 63.3178 71.692 63.5106 71.5298 63.6963L71.1705 64.1115C70.5644 64.8056 69.7088 65.2033 68.8219 65.2033ZM65.126 60.2655C66.3931 60.2655 67.6542 60.8132 68.419 61.6949L68.8184 62.1484L69.2248 61.6949C70.2635 60.4992 72.278 59.9507 73.7911 60.4713L74.3126 60.6501L74.4923 60.0658C74.801 58.4707 76.2391 57.0335 77.8351 56.7257L78.374 56.6201L78.238 56.0271C77.7095 54.4861 78.2345 52.5248 79.4598 51.4599L79.8793 51.0963L79.4615 50.6524C78.2345 49.5849 77.7086 47.6236 78.2362 46.0878L78.4185 45.5619L77.8368 45.3875C76.2373 45.0762 74.8019 43.639 74.4923 42.0439L74.3868 41.5023L73.792 41.6401C72.2719 42.1625 70.2626 41.6096 69.2266 40.4174L68.8629 39.9979L68.4173 40.4174C67.6542 41.2974 66.3922 41.8459 65.1251 41.8459C64.6777 41.8459 64.2495 41.777 63.8553 41.6418L63.3286 41.4596L63.1533 42.0456C62.8446 43.6398 61.4082 45.077 59.8131 45.3875L59.2646 45.4922L59.4059 46.0843C59.9344 47.6253 59.4094 49.5867 58.1841 50.6515L57.7689 51.0126L58.1832 51.4599C59.4094 52.5265 59.9352 54.4879 59.4076 56.0236L59.2253 56.5495L59.8123 56.7265C61.4065 57.0353 62.8446 58.4716 63.1533 60.0684L63.2588 60.6074L63.8527 60.4722C64.2495 60.3344 64.6768 60.2655 65.126 60.2655Z" fill="#5A68D3"/>
<path d="M68.9056 59.1358C64.6262 59.1358 61.1439 55.6535 61.1439 51.3733C61.1439 47.0922 64.6262 43.6099 68.9056 43.6099C73.1867 43.6099 76.669 47.0922 76.669 51.3733C76.6699 55.6535 73.1876 59.1358 68.9056 59.1358ZM68.9056 45.3541C65.5873 45.3541 62.8881 48.055 62.8881 51.3733C62.8881 54.6916 65.5882 57.3916 68.9056 57.3916C72.2248 57.3916 74.9248 54.6916 74.9248 51.3733C74.9248 48.055 72.2248 45.3541 68.9056 45.3541Z" fill="#5A68D3"/>
<path d="M74.9222 73.8454L68.78 70.1416L62.0396 73.698V62.2578H64.6558V69.3602L68.8655 67.139L72.3059 69.2128V62.2578H74.9222V73.8454Z" fill="#5A68D3"/>
</svg>
