<svg width="99" height="100" viewBox="0 0 99 100" fill="none" xmlns="http://www.w3.org/2000/svg">
<path d="M98.1985 43.3523L81.1678 24.0814C80.7971 23.6619 80.2641 23.4216 79.7043 23.4216H18.9839C18.4241 23.4216 17.8911 23.6619 17.5204 24.0814L0.48957 43.3523C-0.0190232 43.9279 -0.143046 44.748 0.172578 45.4484C0.291524 45.7124 0.464961 45.9405 0.675898 46.1228C0.68 46.1273 0.683125 46.1323 0.687226 46.137L47.8829 99.343C48.2536 99.761 48.7854 100 49.344 100C49.9026 100 50.4344 99.7608 50.8051 99.343L98.0008 46.137C98.0049 46.1325 98.0082 46.1275 98.0121 46.1228C98.2229 45.9405 98.3963 45.7122 98.5154 45.4484C98.8311 44.748 98.707 43.9279 98.1985 43.3523ZM76.2411 27.3277L67.5612 41.3206L53.651 27.3277H76.2411ZM63.417 42.6925H35.271L49.344 28.5357L63.417 42.6925ZM45.037 27.3279L31.1268 41.3208L22.447 27.3279H45.037ZM18.6808 28.6669L27.3809 42.6925H6.28566L18.6808 28.6669ZM6.31847 46.5988H29.4001L45.3446 90.595L6.31847 46.5988ZM53.4159 90.5134L64.5561 60.3626C64.9299 59.3507 64.4127 58.2274 63.401 57.8536C62.3887 57.4794 61.2657 57.9968 60.892 59.0087L49.3618 90.2151L33.555 46.5988H92.3695L53.4159 90.5134ZM71.3071 42.6925L80.0073 28.6669L92.4024 42.6925H71.3071Z" fill="#DFEFF8"/>
<path d="M49.3433 0C48.2647 0 47.3901 0.874413 47.3901 1.95312V12.0142C47.3901 13.093 48.2647 13.9674 49.3433 13.9674C50.4218 13.9674 51.2964 13.093 51.2964 12.0142V1.95312C51.2964 0.874413 50.4218 0 49.3433 0Z" fill="#DFEFF8"/>
<path d="M67.1297 7.71954C66.367 6.95685 65.1307 6.95685 64.3674 7.71954L57.2529 14.8338C56.4902 15.5965 56.4902 16.8332 57.2529 17.5959C57.6346 17.9773 58.1344 18.168 58.6342 18.168C59.134 18.168 59.6338 17.9771 60.0152 17.5959L67.1297 10.4816C67.8924 9.71896 67.8924 8.48224 67.1297 7.71954Z" fill="#DFEFF8"/>
<path d="M41.0546 14.8338L33.9404 7.71954C33.1779 6.95685 31.9416 6.95685 31.1781 7.71954C30.4154 8.48224 30.4154 9.71896 31.1781 10.4816L38.2925 17.5959C38.674 17.9773 39.1738 18.168 39.6736 18.168C40.1734 18.168 40.6732 17.9771 41.0546 17.5959C41.8173 16.8332 41.8173 15.5965 41.0546 14.8338Z" fill="#DFEFF8"/>
<path d="M65.2478 54.3668C66.3265 54.3668 67.2009 53.4923 67.2009 52.4136C67.2009 51.335 66.3265 50.4605 65.2478 50.4605C64.1691 50.4605 63.2947 51.335 63.2947 52.4136C63.2947 53.4923 64.1691 54.3668 65.2478 54.3668Z" fill="#DFEFF8"/>
</svg>