<svg width="133" height="126" viewBox="0 0 133 126" fill="none" xmlns="http://www.w3.org/2000/svg">
<path d="M29.7825 18.2307C30.7027 18.4794 33.9841 19.2277 37.5677 18.4067C41.3626 17.5372 44.26 15.2545 46.1071 11.5994C49.6706 4.5475 52.8639 4.35418 54.594 4.90042L54.5857 4.9278L54.9777 5.052L54.6451 5.37954C54.6374 5.38789 53.8261 6.21592 53.1183 7.49936C52.4749 8.66629 51.7918 10.4479 52.1791 12.334C52.6218 14.4902 54.2912 17.0331 57.025 17.8961C57.0487 17.9032 57.0731 17.9092 57.0968 17.9165M57.1128 17.9592C58.033 18.208 61.314 18.9562 64.8976 18.1355C68.6922 17.2661 71.5723 14.978 73.4193 11.3233C76.9825 4.27104 80.1584 4.07171 81.8882 4.61795L81.8922 4.60593L82.32 4.74081L81.9807 5.08839C81.973 5.09673 81.1584 5.93478 80.4505 7.21889C79.8075 8.38548 79.1224 10.1714 79.51 12.0582C79.9527 14.2144 81.6211 16.7593 84.3553 17.622C84.3787 17.6294 84.4024 17.6367 84.4264 17.6437M84.4517 17.5309C85.3716 17.7797 88.6526 18.5279 92.2359 17.7069C96.0308 16.8378 98.9109 14.5497 100.758 10.8947C104.321 3.84239 107.497 3.64339 109.227 4.18929L109.231 4.17727L109.659 4.31216L109.319 4.65973C109.312 4.66808 108.497 5.50646 107.789 6.79024C107.146 7.95716 106.461 9.7431 106.849 11.6299C107.292 13.7858 108.96 16.3309 111.694 17.1937C111.717 17.2014 111.741 17.2084 111.765 17.2154M47.0174 40.9083C47.9373 41.1571 51.219 41.9053 54.8026 41.0843C58.5972 40.2149 61.4949 37.9325 63.342 34.2771C66.9055 27.2252 70.0988 27.0318 71.8289 27.5781L71.8206 27.6054L72.2126 27.7297L71.88 28.0569C71.8727 28.0649 71.061 28.8932 70.3532 30.177C69.7098 31.3436 69.0267 33.1252 69.414 35.0113C69.8567 37.1675 71.5258 39.71 74.2599 40.5735C74.2837 40.5805 74.308 40.5865 74.3314 40.5938M74.3474 40.6369C75.2676 40.8856 78.549 41.6339 82.1326 40.8132C85.9271 39.9438 88.8072 37.656 90.6543 34.001C94.2175 26.9487 97.3934 26.7494 99.1232 27.2956L99.1272 27.2836L99.5549 27.4185L99.2157 27.7657C99.208 27.7741 98.3933 28.6121 97.6855 29.8962C97.0424 31.0628 96.3573 32.8487 96.7453 34.7355C97.1877 36.8917 98.8561 39.4363 101.59 40.2993C101.614 40.3067 101.638 40.314 101.661 40.3214M101.686 40.2087C102.607 40.4574 105.888 41.2056 109.471 40.3849C113.266 39.5155 116.146 37.2278 117.993 33.5724C121.556 26.5205 124.732 26.3211 126.462 26.8674L126.466 26.8553L126.894 26.9899L126.554 27.3375C126.547 27.3458 125.732 28.1839 125.024 29.468C124.381 30.6346 123.696 32.4208 124.084 34.3073C124.526 36.4632 126.195 39.0084 128.929 39.8711C128.952 39.8788 128.976 39.8858 129 39.8928M27.2429 67.9398C28.1628 68.1886 31.4445 68.9368 35.0277 68.1158C38.8227 67.2463 41.7204 64.9639 43.5671 61.3086C47.1307 54.2566 50.3243 54.0633 52.0541 54.6095L52.0458 54.6369L52.4381 54.7611L52.1055 55.0883C52.0978 55.0963 51.2862 55.9247 50.5787 57.2085C49.9349 58.3751 49.2518 60.1567 49.6391 62.0428C50.0819 64.199 51.7513 66.7415 54.4851 67.6049C54.5088 67.6119 54.5332 67.618 54.5569 67.6253M54.5726 67.6688C55.4928 67.9176 58.7742 68.6658 62.3574 67.8451C66.152 66.9757 69.0321 64.6879 70.8791 61.0329C74.4427 53.9806 77.6182 53.7813 79.3481 54.3272L79.3521 54.3155L79.7798 54.4504L79.4406 54.7976C79.4329 54.806 78.6182 55.644 77.9107 56.9281C77.2673 58.0947 76.5822 59.8807 76.9701 61.7674C77.4129 63.9237 79.0813 66.4682 81.8151 67.3313C81.8385 67.3386 81.8625 67.3459 81.8862 67.353M81.9121 67.2404C82.832 67.4892 86.1134 68.2374 89.6963 67.4164C93.4912 66.5473 96.3712 64.2595 98.218 60.6042C101.781 53.5522 104.958 53.3529 106.687 53.8991L106.692 53.8871L107.119 54.0217L106.78 54.3692C106.772 54.3776 105.958 55.2156 105.25 56.4997C104.606 57.6663 103.922 59.4523 104.309 61.339C104.752 63.4949 106.42 66.0398 109.154 66.9029C109.178 66.9105 109.202 66.9175 109.226 66.9246M44.4778 90.6176C45.3977 90.8663 48.6794 91.6146 52.2626 90.7935C56.0576 89.9241 58.9553 87.6417 60.802 83.9863C64.3656 76.9344 67.5592 76.7411 69.289 77.2873L69.2807 77.3147L69.673 77.4389L69.3404 77.7661C69.3328 77.7741 68.5211 78.6025 67.8132 79.8863C67.1698 81.0528 66.4867 82.8345 66.874 84.7206C67.3168 86.8768 68.9862 89.4196 71.72 90.2827C71.7437 90.2897 71.7681 90.2957 71.7915 90.3031M71.8072 90.3464C72.7277 90.5952 76.0088 91.3434 79.5924 90.5231C83.3869 89.6533 86.267 87.3655 88.1141 83.7105C91.6776 76.6582 94.8532 76.4589 96.583 77.0051L96.587 76.9931L97.0147 77.128L96.6755 77.4752C96.6678 77.4836 95.8531 78.3216 95.1453 79.6058C94.5023 80.7723 93.8171 82.5583 94.2051 84.445C94.6478 86.6013 96.3159 89.1461 99.0501 90.0089C99.0734 90.0162 99.0975 90.0236 99.1212 90.0309M99.147 89.9185C100.067 90.1669 103.348 90.9152 106.931 90.0945C110.726 89.2251 113.606 86.9373 115.453 83.2819C119.016 76.23 122.192 76.0307 123.922 76.5769L123.926 76.5649L124.354 76.6994L124.015 77.047C124.007 77.0554 123.193 77.8937 122.485 79.1775C121.841 80.3441 121.156 82.1304 121.544 84.0168C121.987 86.1727 123.655 88.7179 126.389 89.5807C126.413 89.5883 126.437 89.5957 126.461 89.6023" stroke="white" stroke-width="6" stroke-miterlimit="10"/>
<path d="M60.7651 115.551H28.7123M29.714 115.217H60.7652M1 102.022V53.9114C1 49.022 5.04967 45.0217 9.93905 45.0217L58.4279 45.1125V95.9105L9.93905 95.82C5.04934 95.82 1 99.8203 1 104.71V106.161C1 111.05 5.09107 115.217 9.98012 115.217H15.0231M29.7139 105.868V123.214L22.7311 117.771L15.0231 123.214V104.533H53.4196M53.7535 95.8517V115.217M15.0231 45.1015V95.8517M24.3719 56.4535H47.0759V66.1361H24.3719V56.4535Z" stroke="#5A68D3" stroke-width="2" stroke-miterlimit="10"/>
</svg>