<svg width="128" height="100" viewBox="0 0 128 100" fill="none" xmlns="http://www.w3.org/2000/svg">
<path d="M125.849 11.491C125.489 11.0692 124.992 10.7853 124.446 10.6891L64.1212 0.0523057C63.9978 0.0260612 63.8724 0.0095367 63.747 0.00273277C63.7353 0.00176056 63.7246 0.00176057 63.713 0.00176057C63.6459 -0.00115529 63.5788 -0.000183346 63.5118 0.00273277C63.4807 0.00370472 63.4486 0.00370472 63.4175 0.00662084C63.4039 0.00759279 63.3912 0.0105089 63.3776 0.0114809C63.2911 0.020229 63.2036 0.0318932 63.1191 0.0503616L2.78206 10.6891C2.01999 10.8232 1.36971 11.317 1.03631 12.0149C0.695134 12.7294 -2.14024 19.8912 3.33513 50.9432C3.74435 53.2605 5.71755 64.2968 6.20258 66.7308C7.31943 72.3344 13.6755 81.2099 21.6606 88.3144C28.7903 94.6568 39.5418 101.508 49.6634 99.7045C55.165 98.7247 59.8482 95.3333 63.6109 91.3413C67.3882 95.346 72.0966 98.75 77.6284 99.7152C78.7423 99.9096 79.8562 100 80.9682 100C90.8711 100 100.484 92.8343 105.63 88.2366C113.617 81.102 119.964 72.1974 121.064 66.582C121.526 64.2249 123.481 53.2722 123.888 50.9646C129.399 19.7104 127.095 12.9481 125.849 11.491ZM48.8236 94.9883C42.2285 96.1625 33.4881 92.4251 24.8449 84.7354C17.1067 77.8506 11.6789 69.6983 10.9003 65.7947C10.4454 63.5124 8.56653 53.0253 8.05233 50.1112C3.98444 27.0413 4.62986 18.0288 5.12753 15.14L62.6671 4.99404C63.9569 7.08971 67.4582 14.6112 71.7418 38.9038C72.1948 41.4739 74.0611 52.1981 74.4149 54.4552C75.0321 58.3928 72.7372 67.9312 67.8295 77.075C62.3502 87.2841 55.4226 93.8131 48.8236 94.9883ZM76.4367 69.4835C78.1931 68.597 80.385 68.1499 83.0901 68.6184C89.5181 69.7323 91.4242 74.7139 91.9802 77.9216L74.2487 74.886C75.0661 73.078 75.799 71.2642 76.4367 69.4835ZM119.17 50.1336C118.659 53.035 116.798 63.4463 116.364 65.6606C115.597 69.5729 110.179 77.7505 102.439 84.6645C93.7989 92.3842 85.0546 96.1489 78.4526 94.997C74.5403 94.3137 70.5103 91.7485 66.7321 87.6515C68.9803 84.7111 70.7601 81.7416 72.0354 79.368C72.0354 79.368 94.0574 83.1365 94.1857 83.1588C95.4979 83.3834 96.9093 82.3394 96.9822 80.9212C96.99 80.7725 97.1523 77.2412 95.6787 73.428C94.2635 69.7664 91.0733 65.1405 83.9086 63.8993C81.8936 63.5503 79.967 63.5484 78.1533 63.8789C79.1651 59.8576 79.55 56.2806 79.1476 53.7135C79.1408 53.6727 79.1331 53.6241 79.1253 53.5774C79.1253 53.5774 89.4481 55.7139 89.6095 55.7139C90.7205 55.7139 91.7158 54.9373 91.952 53.8068C92.2222 52.5121 91.3921 51.2436 90.0964 50.9734L79.2322 48.7066C80.0302 47.8085 89.1497 40.5077 89.1497 40.5077C90.1791 39.6766 90.3394 38.169 89.5074 37.1396C88.6773 36.1103 87.1687 35.9509 86.1403 36.7819C86.1403 36.7819 78.5965 42.753 77.4515 43.76C77.0111 41.224 76.6184 38.9777 76.459 38.0728C75.8797 34.7864 75.312 31.7877 74.757 29.0447L82.5244 28.025C83.8357 27.852 84.7591 26.6496 84.587 25.3384C84.415 24.0271 83.2116 23.1037 81.9004 23.2757L73.7656 24.343C71.6932 14.9465 69.8415 9.18538 68.3252 5.6589L122.242 15.1652C122.737 17.5749 123.454 25.8409 119.17 50.1336Z" fill="#DFEFF8"/>
<path d="M113.445 33.4579L99.6766 26.3417C98.5024 25.7352 97.0571 26.1949 96.4495 27.3701C95.842 28.5453 96.3028 29.9907 97.4779 30.5982C97.4779 30.5982 111.2 37.6891 111.246 37.7134C112.333 38.2752 113.866 37.8592 114.473 36.685C115.08 35.5098 114.62 34.0654 113.445 33.4579Z" fill="#DFEFF8"/>
<path d="M32.4113 33.7404C33.1034 32.6129 32.7515 31.1383 31.624 30.4453L23.5446 25.4831C22.5619 24.8805 21.2895 25.0622 20.5158 25.9157L13.1236 34.0748C12.2361 35.0546 12.311 36.569 13.2908 37.4574C14.1889 38.271 15.7937 38.2632 16.6744 37.2912L22.731 30.6056L29.1172 34.5277C30.2447 35.2198 31.7192 34.8679 32.4113 33.7404Z" fill="#DFEFF8"/>
<path d="M61.4629 25.4448L51.7087 20.3436C50.6871 19.809 49.4303 20.0792 48.7168 20.9851L42.8429 28.4454C42.0255 29.4845 42.2033 30.9891 43.2415 31.8076C44.1921 32.557 45.8047 32.4268 46.6066 31.4091L51.2509 25.5099L59.2428 29.6896C60.4151 30.3019 61.8624 29.849 62.4748 28.6767C63.0881 27.5045 62.6342 26.0571 61.4629 25.4448Z" fill="#DFEFF8"/>
<path d="M33.4715 55.8344C34.1762 56.8161 35.2727 57.3498 36.5411 57.3498C36.755 57.3498 47.0224 55.0607 47.0224 55.0607C48.3113 54.7652 49.1171 53.4802 48.8216 52.1913C48.5261 50.9014 47.2421 50.0946 45.9522 50.3921L37.4422 52.3419C37.6677 50.2268 39.3104 45.6127 41.408 41.3863C41.9961 40.2014 41.513 38.7638 40.3281 38.1758C39.1432 37.5887 37.7066 38.0708 37.1185 39.2557C37.0583 39.3772 35.6187 42.2825 34.394 45.565C32.4042 50.8956 32.1282 53.9672 33.4715 55.8344Z" fill="#DFEFF8"/>
<path d="M59.2626 61.0869C59.2626 61.0869 27.466 66.7917 27.3717 66.8082C25.7922 67.092 24.9242 68.9262 25.6999 70.3269C25.7737 70.4601 27.5525 73.6357 30.9118 76.5196C35.1158 80.1297 40.8536 82.0086 46.362 81.0201C51.8841 80.0286 56.3583 76.7131 59.2996 71.4302C61.4526 67.5625 62.028 63.9709 62.0523 63.8105C62.3021 62.2038 60.8597 60.8002 59.2626 61.0869ZM45.5154 76.3048C39.0427 77.4654 34.4286 73.693 31.9597 70.8518L56.3369 66.4787C54.9819 70.0023 51.9356 75.153 45.5154 76.3048Z" fill="#DFEFF8"/>
<path d="M110.593 47.5143C109.283 47.4073 108.117 48.3978 108.011 49.7062C108.011 49.7062 108.008 49.7557 107.996 49.8733C107.953 50.3214 107.546 54.3709 106.322 58.6682C105.96 59.9376 106.701 61.2644 107.97 61.626C109.232 61.9895 110.571 61.2382 110.93 59.9784C112.281 55.2165 112.71 50.9367 112.783 50.127C112.783 50.1105 112.786 50.1008 112.786 50.0959C112.894 48.7789 111.91 47.6221 110.593 47.5143Z" fill="#DFEFF8"/>
<path d="M107.044 67.9612C107.044 69.2831 105.972 70.3562 104.649 70.3562C103.326 70.3562 102.254 69.2831 102.254 67.9612C102.254 66.6383 103.326 65.5661 104.649 65.5661C105.972 65.5661 107.044 66.6383 107.044 67.9612Z" fill="#DFEFF8"/>
</svg>