<svg width="501" height="320" viewBox="0 0 501 320" fill="none" xmlns="http://www.w3.org/2000/svg">
<mask id="mask0" mask-type="alpha" maskUnits="userSpaceOnUse" x="0" y="0" width="501" height="320">
<rect width="501" height="320" fill="#C4C4C4"/>
</mask>
<g mask="url(#mask0)">
<path d="M-99.8103 261.949C-111.727 258.755 -124.385 253.89 -137.858 247.339C-179.947 226.878 -207.184 193.533 -216.625 150.909C-224.017 117.535 -220.194 79.7941 -206.135 47.3633L-198.979 50.4606C-212.204 80.9673 -215.956 117.894 -209.013 149.238C-200.104 189.457 -174.322 220.961 -134.451 240.345C-97.0261 258.536 -65.3365 263.183 -40.2612 254.148C-4.00577 241.085 13.3455 202.69 27.2868 171.84C31.0636 163.48 34.6319 155.586 38.1891 149.191C46.5392 134.175 61.4749 114.76 85.2128 107.523C99.6225 103.131 110.424 105.355 110.878 105.451L121.097 107.637L111.949 112.665C110.801 113.303 83.5966 128.879 80.9605 168.633C78.4725 206.158 99.1309 257.755 165.54 279.671C218.291 297.08 244.979 285.82 264.467 277.599C268.447 275.919 272.206 274.334 275.839 273.134C284.319 270.332 298.416 261.544 312.542 245.278C323.009 233.226 337.085 212.892 344.703 184.46C351.028 160.857 359.687 143.348 370.439 132.419C380.88 121.804 391.305 119.445 398.212 119.335L404.368 119.237L401.83 124.832C401.752 125.006 393.83 142.733 391.785 164.944C389.099 194.131 397.316 216.932 416.209 232.711C461.273 270.352 479.628 281.564 509.73 289.839C510.071 289.932 510.424 290.029 510.764 290.12C577.663 308.045 618.159 273.831 661.03 237.616C663.032 235.924 665.038 234.23 667.051 232.538C692.633 211.026 704.309 201.208 716.525 200.483L723.642 200.061L720.162 206.269C719.634 207.213 719.104 208.146 718.58 209.074C712.036 220.631 706.386 230.613 706.182 249.027L698.385 248.931C698.578 231.583 703.231 220.81 708.784 210.619C700.825 214.468 690.275 223.189 672.078 238.49C670.07 240.179 668.068 241.871 666.07 243.558C643.675 262.476 622.521 280.344 597.444 291.605C569.49 304.157 540.463 306.132 508.743 297.632C508.384 297.536 508.026 297.438 507.666 297.34C476.252 288.704 457.321 277.191 411.209 238.677C390.478 221.36 381.084 195.537 384.043 163.999C385.495 148.511 389.535 135.334 392.212 127.948C380.451 130.96 363.761 143.464 352.235 186.478C338.119 239.161 300.501 273.186 278.296 280.522C274.96 281.623 271.342 283.15 267.51 284.767C246.884 293.468 218.641 305.388 163.1 287.057C132.41 276.929 107.848 259.261 92.0743 235.962C78.3358 215.673 71.6273 191.576 73.1836 168.109C75.1214 138.881 89.2598 121.38 98.9754 112.679C85.9399 113.693 63.0436 120.542 45.0082 152.972C41.609 159.086 38.1052 166.838 34.3964 175.046C20.6189 205.533 1.74963 247.289 -37.604 261.468C-55.8402 268.037 -76.3941 268.223 -99.8103 261.949Z" fill="url(#paint0_linear)"/>
<path d="M-111.59 244.286C-138.846 236.983 -152.678 224.861 -162.264 216.46C-163.357 215.501 -164.389 214.598 -165.373 213.763C-188.166 194.436 -202.115 165.994 -205.713 131.511C-209.052 99.5166 -202.931 65.5176 -188.476 35.7771L-181.462 39.1789C-195.29 67.6335 -201.15 100.142 -197.96 130.714C-194.572 163.165 -181.561 189.832 -160.33 207.836C-159.315 208.697 -158.252 209.628 -157.125 210.615C-146.717 219.736 -130.996 233.521 -96.6744 239.621C-31.953 251.129 -15.9897 220.362 6.10446 177.779C13.9522 162.654 22.8458 145.509 34.8738 129.173C59.8863 95.1979 89.7469 90.9518 110.394 93.3722C132.563 95.9731 148.638 106.447 149.312 106.891L178.338 126.056L146.174 113.905C145.451 113.813 140.18 113.394 128.369 118.661C112.547 125.715 102.542 137.628 97.7855 155.08C91.7764 177.125 94.313 198.697 105.122 217.461C119.345 242.154 146.916 260.579 184.855 270.744C230.644 283.013 264.581 264.746 277.358 257.87C291.777 250.108 317.937 229.745 331.114 180.566C337.836 155.481 342.837 139.294 360.203 123.288C381.226 103.912 403.428 104.014 417.201 110.576L420.697 112.24L419.055 115.741C418.921 116.027 405.647 144.66 406.526 172.764C406.974 187.083 409.134 202.615 421.793 219.165C435.644 237.273 460.33 254.211 497.259 270.947C528.652 285.173 555.663 285.885 584.839 273.254C612.512 261.274 640.45 238.55 679.835 205.546C701.409 187.467 725.052 179.909 744.61 185.149L751.702 187.05L746.106 192.041C743.17 194.583 723.589 216.841 723.201 240.038C723.018 250.991 727.236 260.604 735.765 268.517L730.453 274.236C720.234 264.756 715.163 253.239 715.384 239.985C715.719 219.981 728.285 201.096 735.88 191.856C720.164 190.334 701.936 197.338 684.8 211.698C644.892 245.142 616.59 267.992 587.948 280.39C556.578 293.97 527.617 293.245 494.043 278.028C407.909 238.994 399.683 203.347 398.734 172.997C397.98 148.876 406.634 125.191 410.359 116.188C398.801 112.305 381.919 113.87 365.496 129.005C350.474 142.853 345.779 155.964 338.646 182.584C324.713 234.582 296.589 256.364 281.065 264.718C274.965 268.002 262.272 274.833 245.295 279.001C224.627 284.074 203.614 283.825 182.841 278.259C142.856 267.545 113.644 247.861 98.3647 221.332C86.4996 200.735 83.6983 177.116 90.2635 153.029C95.6728 133.187 107.095 119.62 125.183 111.556C128.767 109.958 131.874 108.807 134.546 107.986C128.175 105.23 119.326 102.216 109.215 101.068C82.2911 98.0088 59.3937 109.015 41.1596 133.785C29.4925 149.633 21.123 165.763 13.0299 181.363C1.61746 203.359 -8.23866 222.357 -24.4314 235.03C-42.4286 249.116 -65.8153 253.009 -98.0316 247.281C-102.889 246.418 -107.399 245.408 -111.59 244.286Z" fill="url(#paint1_linear)"/>
<path d="M-2.35005 203.087C-21.2387 198.026 -41.9428 188.605 -60.0472 176.753C-85.236 160.264 -105.017 139.445 -117.254 116.55C-136.789 79.9923 -137.816 38.6699 -120.302 -6.27034C-104.968 -45.6221 -81.1556 -62.2451 -70.1612 -68.1113C-80.8628 -75.9914 -100.372 -84.2865 -123.599 -86.6703C-145.523 -88.9206 -177.926 -86.6877 -207.777 -63.2653L-212.599 -69.3849C-180.701 -94.413 -146.164 -96.8082 -122.81 -94.4102C-93.833 -91.4401 -70.5092 -79.9705 -60.2501 -69.9266L-55.7786 -65.5481L-61.6839 -63.4799C-61.9975 -63.3677 -94.373 -51.3327 -113.036 -3.44243C-129.687 39.2885 -128.793 78.4301 -110.375 112.894C-98.7534 134.641 -79.8734 154.474 -55.7767 170.249C-36.5448 182.841 -14.3155 192.573 5.17535 196.931C17.252 199.634 60.2264 207.473 106.214 194.837C154.912 181.456 190.694 150.167 212.53 101.831C254.657 8.57399 296.573 4.44145 318.227 10.2436L318.164 10.4784L324.264 12.1128L320.123 16.6018C320.024 16.7133 309.975 27.9168 301.54 44.9271C293.876 60.387 286.038 83.8362 292.15 108.035C299.137 135.684 322.245 167.657 358.19 177.288C358.502 177.372 358.815 177.438 359.129 177.519C389.605 185.308 415.938 180.401 443.814 175.215C478.086 168.838 513.525 162.237 557.15 180.771C566.493 184.741 603.206 212.136 612.096 273.654C614.127 287.711 617.577 301.556 620.911 314.946C623.087 323.678 625.141 331.924 626.742 339.943L619.096 341.454C617.53 333.614 615.498 325.453 613.346 316.814C609.964 303.237 606.469 289.197 604.38 274.753C596.093 217.413 562.078 191.314 554.103 187.926C512.648 170.316 478.387 176.69 445.252 182.857C417.769 187.97 389.351 193.256 357.206 185.042C314.929 174.194 291.659 137.791 284.605 109.87C274.12 68.3685 299.651 29.8953 310.165 16.2963C304.061 15.564 294.585 15.9263 282.897 22.0998C260.397 33.9833 239.108 61.8853 219.618 105.031C196.786 155.576 159.33 188.315 108.29 202.34C60.5622 215.454 15.9981 207.326 3.47707 204.523C1.55795 204.093 -0.386154 203.614 -2.35005 203.087Z" fill="url(#paint2_linear)"/>
<path d="M643.377 466.548C621.274 456.884 606.113 445.581 595.665 430.976C576.202 403.77 574.146 369.379 572.159 336.119C570.032 300.549 567.834 263.768 544.811 234.504C520.365 203.43 472.115 207.92 451.512 209.838C449.65 210.011 447.999 210.165 446.594 210.272C443.678 210.496 439.701 211.092 435.093 211.781C423.709 213.483 408.117 215.814 390.456 215.46C369.451 215.039 350.29 210.774 333.507 202.785C294.458 184.199 275.867 156.953 267.147 137.371C259.37 119.912 256.116 100.983 257.577 83.1558C253.682 90.6837 248.724 101.427 242.789 116.574C227.047 156.741 193.96 193.774 154.279 215.638C129.516 229.281 102.327 237.21 73.4681 239.205C40.5892 241.478 5.53105 236 -30.7194 222.917C-70.1948 208.674 -101.732 187.171 -124.453 159.004C-145.8 132.541 -158.418 100.667 -160.942 66.8267C-163.638 30.6816 -155.352 -20.6856 -124.646 -59.5087C-151.575 -63.3477 -188.076 -48.513 -219.8 -20.3745L-224.991 -26.1659C-188.881 -58.195 -146.304 -73.7052 -116.512 -65.7225L-110.494 -64.11L-114.564 -59.4429C-147.148 -21.9214 -155.869 30.0934 -153.17 66.2716C-148.095 134.329 -102.5 188.755 -28.0788 215.608C7.15256 228.318 41.1311 233.645 72.9203 231.447C100.639 229.532 126.743 221.919 150.505 208.828C188.645 187.815 220.428 152.264 235.527 113.734C252.375 70.7419 261.679 61.8032 262.686 60.9242L273.144 51.7944L268.972 65.0249C262.251 86.3431 264.182 111.562 274.271 134.218C282.457 152.601 299.961 178.201 336.858 195.763C373.365 213.142 411.278 207.471 433.929 204.086C438.685 203.374 442.793 202.761 445.987 202.515C447.356 202.409 448.964 202.259 450.779 202.091C472.651 200.056 523.867 195.289 550.941 229.703C575.472 260.883 577.744 298.901 579.941 335.666C581.953 369.306 583.851 401.08 602.009 426.46C611.604 439.872 625.742 450.345 646.501 459.422L643.377 466.548Z" fill="url(#paint3_linear)"/>
<path d="M673.149 445.371C615.156 426.734 599.639 408.902 592.705 310.401C588.801 254.934 575.852 226.062 544.932 203.871C528.025 191.74 496.872 188.998 452.329 195.719C448.802 196.251 447.688 196.413 446.867 196.376C446.241 196.43 444.189 196.786 442.202 197.13C427.339 199.71 389.147 206.334 357.575 197.877C355.822 197.407 354.093 196.891 352.386 196.326C309.158 181.996 278.787 149.111 271.143 108.361C265.621 78.9239 275.738 51.3262 284.099 34.7775C277.069 39.029 267.074 47.0476 256.734 61.835C244.406 79.4681 237.22 94.8064 230.27 109.64C225.895 118.98 221.762 127.803 216.669 136.388C201.395 162.137 141.699 244.345 14.8228 221.143C7.88988 219.876 1.24825 218.373 -5.09445 216.674C-60.8703 201.731 -94.2698 171.339 -112.965 147.206C-136.891 116.321 -149.726 79.0766 -147.3 47.576C-143.133 -6.54201 -120.786 -49.417 -99.0669 -67.2673C-127.486 -78.9716 -170.502 -78.6372 -212.753 -44.5798L-217.657 -50.6345C-169.468 -89.4805 -119.926 -86.8775 -89.6291 -71.4927L-83.4889 -68.3746L-89.3217 -64.7275C-110.462 -51.5114 -135.244 -7.44736 -139.526 48.1821C-141.775 77.3695 -129.234 113.493 -106.799 142.453C-86.8127 168.254 -49.2394 201.522 16.2191 213.491C138.14 235.785 195.334 157.074 209.96 132.42C214.86 124.159 218.916 115.503 223.209 106.339C229.967 91.9117 237.628 75.5609 250.34 57.3783C271.44 27.1994 291.571 22.8019 292.418 22.6281L301.219 20.8365L296.526 28.4767C289.054 40.6387 272.372 72.6323 278.808 106.938C285.922 144.862 314.345 175.518 354.837 188.942C385.421 199.076 425.698 192.095 440.859 189.464C444.922 188.76 446.171 188.551 447.113 188.596C447.669 188.552 449.441 188.285 451.157 188.025C468.535 185.402 521.426 177.42 549.479 197.556C587.277 224.682 597.017 260.64 600.482 309.863C604.023 360.158 609.52 386.375 620.093 403.371C631.058 420.999 648.037 429.128 675.533 437.965L673.149 445.371Z" fill="url(#paint4_linear)"/>
</g>
<defs>
<linearGradient id="paint0_linear" x1="-241.385" y1="37.8829" x2="2072.28" y2="657.827" gradientUnits="userSpaceOnUse">
<stop stop-color="#E0E4FF"/>
<stop offset="0.541667" stop-color="white"/>
</linearGradient>
<linearGradient id="paint1_linear" x1="-241.385" y1="37.8829" x2="2072.28" y2="657.827" gradientUnits="userSpaceOnUse">
<stop stop-color="#E0E4FF"/>
<stop offset="0.541667" stop-color="white"/>
</linearGradient>
<linearGradient id="paint2_linear" x1="-241.385" y1="37.8829" x2="2072.28" y2="657.827" gradientUnits="userSpaceOnUse">
<stop stop-color="#E0E4FF"/>
<stop offset="0.541667" stop-color="white"/>
</linearGradient>
<linearGradient id="paint3_linear" x1="-241.385" y1="37.8829" x2="2072.28" y2="657.827" gradientUnits="userSpaceOnUse">
<stop stop-color="#E0E4FF"/>
<stop offset="0.541667" stop-color="white"/>
</linearGradient>
<linearGradient id="paint4_linear" x1="-241.385" y1="37.8829" x2="2072.28" y2="657.827" gradientUnits="userSpaceOnUse">
<stop stop-color="#E0E4FF"/>
<stop offset="0.541667" stop-color="white"/>
</linearGradient>
</defs>
</svg>