<svg width="641" height="427" viewBox="0 0 641 427" fill="none" xmlns="http://www.w3.org/2000/svg">
<mask id="mask0" mask-type="alpha" maskUnits="userSpaceOnUse" x="0" y="0" width="641" height="427">
<rect width="641" height="427" fill="#C4C4C4"/>
</mask>
<g mask="url(#mask0)">
<path d="M-131.978 329.698C-142.757 326.81 -154.205 322.409 -166.391 316.484C-204.46 297.977 -229.095 267.818 -237.634 229.266C-244.32 199.08 -240.862 164.944 -228.146 135.611L-221.673 138.413C-233.636 166.005 -237.029 199.404 -230.749 227.754C-222.691 264.131 -199.372 292.626 -163.309 310.158C-129.46 326.611 -100.797 330.815 -78.1174 322.643C-45.3253 310.828 -29.6316 276.101 -17.022 248.197C-13.606 240.636 -10.3785 233.496 -7.16121 227.712C0.391335 214.131 13.9003 196.57 35.3705 190.025C48.4038 186.052 58.1735 188.063 58.5836 188.15L67.8268 190.127L59.5525 194.675C58.5144 195.252 33.9087 209.34 31.5244 245.296C29.2741 279.237 47.9592 325.905 108.024 345.727C155.737 361.474 179.875 351.289 197.502 343.853C201.101 342.334 204.501 340.901 207.787 339.815C215.457 337.281 228.207 329.332 240.984 314.62C250.451 303.719 263.183 285.327 270.073 259.611C275.793 238.264 283.625 222.427 293.35 212.542C302.794 202.941 312.223 200.808 318.471 200.708L324.038 200.619L321.743 205.68C321.672 205.837 314.507 221.87 312.658 241.96C310.228 268.359 317.66 288.982 334.748 303.254C375.507 337.299 392.109 347.44 419.335 354.924C419.644 355.008 419.963 355.096 420.271 355.178C480.779 371.391 517.406 340.445 556.182 307.69C557.993 306.16 559.808 304.627 561.629 303.097C584.766 283.64 595.327 274.76 606.376 274.104L612.813 273.723L609.666 279.337C609.188 280.192 608.709 281.035 608.235 281.875C602.316 292.328 597.206 301.355 597.021 318.011L589.969 317.924C590.144 302.233 594.352 292.489 599.374 283.272C592.176 286.753 582.633 294.641 566.175 308.481C564.358 310.008 562.548 311.538 560.741 313.065C540.485 330.175 521.352 346.337 498.67 356.521C473.386 367.874 447.133 369.661 418.442 361.973C418.118 361.886 417.795 361.798 417.469 361.709C389.055 353.897 371.933 343.484 330.225 308.649C311.475 292.987 302.978 269.631 305.655 241.106C306.968 227.097 310.622 215.178 313.044 208.498C302.406 211.222 287.31 222.531 276.885 261.437C264.117 309.087 230.093 339.862 210.01 346.497C206.992 347.493 203.72 348.875 200.254 350.336C181.598 358.207 156.053 368.988 105.818 352.408C78.0595 343.247 55.8437 327.267 41.5767 306.194C29.1504 287.843 23.0828 266.048 24.4905 244.823C26.2432 218.387 39.0309 202.557 47.8185 194.688C36.0282 195.605 15.3191 201.8 -0.993469 231.132C-4.06791 236.662 -7.23702 243.673 -10.5916 251.097C-23.053 278.672 -40.1197 316.438 -75.714 329.263C-92.2082 335.205 -110.799 335.373 -131.978 329.698Z" fill="url(#paint0_linear)"/>
<path d="M-142.632 313.722C-167.285 307.118 -179.795 296.153 -188.466 288.555C-189.455 287.688 -190.388 286.871 -191.278 286.116C-211.893 268.635 -224.51 242.91 -227.764 211.721C-230.784 182.783 -225.248 152.031 -212.174 125.132L-205.83 128.209C-218.337 153.945 -223.637 183.348 -220.752 211C-217.688 240.351 -205.919 264.471 -186.716 280.755C-185.799 281.533 -184.837 282.375 -183.818 283.268C-174.404 291.518 -160.184 303.986 -129.142 309.504C-70.6029 319.912 -56.1645 292.084 -36.181 253.569C-29.0829 239.889 -21.0388 224.382 -10.1598 209.606C12.4633 178.876 39.4715 175.036 58.1459 177.225C78.1976 179.578 92.7372 189.051 93.3468 189.453L119.6 206.787L90.508 195.796C89.8541 195.713 85.0873 195.335 74.404 200.098C60.0931 206.479 51.0447 217.253 46.7422 233.038C41.3071 252.978 43.6014 272.489 53.3774 289.46C66.2423 311.794 91.1796 328.459 125.494 337.654C166.909 348.751 197.605 332.229 209.161 326.009C222.203 318.989 245.863 300.571 257.782 256.09C263.861 233.401 268.385 218.761 284.092 204.283C303.107 186.758 323.187 186.85 335.645 192.785L338.807 194.291L337.322 197.457C337.201 197.716 325.195 223.614 325.99 249.033C326.395 261.984 328.349 276.033 339.799 291.001C352.326 307.379 374.654 322.7 408.056 337.837C436.449 350.704 460.881 351.348 487.27 339.923C512.299 329.088 537.568 308.535 573.191 278.684C592.704 262.332 614.088 255.495 631.778 260.235L638.193 261.954L633.131 266.469C630.475 268.768 612.766 288.9 612.415 309.88C612.249 319.787 616.064 328.482 623.778 335.639L618.974 340.812C609.731 332.237 605.144 321.82 605.344 309.833C605.647 291.739 617.012 274.658 623.883 266.301C609.668 264.925 593.18 271.26 577.681 284.248C541.585 314.497 515.987 335.164 490.082 346.378C461.708 358.66 435.514 358.005 405.147 344.242C327.241 308.937 319.8 276.694 318.942 249.243C318.26 227.427 326.087 206.005 329.457 197.862C319.003 194.35 303.734 195.765 288.879 209.454C275.292 221.979 271.046 233.838 264.594 257.915C251.992 304.946 226.554 324.647 212.513 332.203C206.996 335.173 195.516 341.352 180.161 345.121C161.467 349.71 142.461 349.485 123.673 344.45C87.5072 334.76 61.0862 316.956 47.2661 292.962C36.5344 274.332 34.0007 252.969 39.9387 231.183C44.8313 213.237 55.1624 200.966 71.5223 193.672C74.7646 192.226 77.5744 191.185 79.991 190.443C74.2283 187.95 66.2246 185.224 57.0794 184.186C32.7278 181.419 12.0177 191.374 -4.47447 213.777C-15.0271 228.111 -22.5971 242.701 -29.9171 256.811C-40.2393 276.706 -49.1539 293.888 -63.7999 305.351C-80.0779 318.092 -101.231 321.613 -130.369 316.432C-134.763 315.651 -138.842 314.738 -142.632 313.722Z" fill="url(#paint1_linear)"/>
<path d="M-43.8278 276.46C-60.9121 271.882 -79.6384 263.361 -96.0134 252.641C-118.796 237.727 -136.688 218.897 -147.755 198.189C-165.425 165.124 -166.353 127.748 -150.512 87.1012C-136.643 51.5085 -115.105 36.4735 -105.161 31.1677C-114.841 24.0403 -132.486 16.5376 -153.494 14.3815C-173.324 12.3462 -202.632 14.3658 -229.631 35.5507L-233.993 30.0158C-205.141 7.37849 -173.904 5.21207 -152.78 7.38104C-126.572 10.0674 -105.476 20.4414 -96.1969 29.5258L-92.1526 33.486L-97.4937 35.3566C-97.7774 35.4582 -127.06 46.3435 -143.94 89.659C-159.001 128.308 -158.192 163.711 -141.534 194.883C-131.022 214.552 -113.946 232.491 -92.1509 246.758C-74.756 258.147 -54.6503 266.95 -37.0213 270.892C-26.0983 273.337 12.771 280.426 54.3653 268.998C98.412 256.895 130.776 228.595 150.525 184.876C188.628 100.528 226.541 96.7898 246.126 102.038L246.069 102.25L251.586 103.728L247.841 107.788C247.752 107.889 238.662 118.023 231.033 133.408C224.101 147.391 217.012 168.6 222.54 190.488C228.859 215.496 249.76 244.414 282.271 253.125C282.554 253.201 282.837 253.261 283.12 253.334C310.686 260.379 334.503 255.941 359.716 251.25C390.714 245.483 422.768 239.512 462.225 256.276C470.676 259.866 503.882 284.644 511.923 340.285C513.76 352.999 516.88 365.522 519.896 377.633C521.864 385.531 523.721 392.99 525.169 400.243L518.254 401.609C516.838 394.518 515 387.136 513.053 379.323C509.994 367.042 506.833 354.344 504.944 341.28C497.449 289.417 466.683 265.811 459.47 262.747C421.975 246.819 390.986 252.584 361.017 258.162C336.159 262.787 310.456 267.568 281.381 260.138C243.143 250.326 222.096 217.401 215.716 192.147C206.233 154.61 229.324 119.812 238.834 107.512C233.313 106.85 224.742 107.177 214.17 112.761C193.82 123.51 174.564 148.746 156.936 187.77C136.285 233.487 102.407 263.098 56.2434 275.783C13.0747 287.645 -27.2324 280.294 -38.5573 277.758C-40.2931 277.37 -42.0515 276.936 -43.8278 276.46Z" fill="url(#paint2_linear)"/>
<path d="M540.216 514.754C520.224 506.012 506.512 495.789 497.062 482.579C479.458 457.972 477.598 426.867 475.801 396.784C473.877 364.611 471.889 331.344 451.065 304.875C428.954 276.77 385.313 280.831 366.678 282.565C364.994 282.722 363.502 282.861 362.231 282.958C359.593 283.161 355.996 283.699 351.828 284.323C341.531 285.863 327.429 287.971 311.456 287.65C292.457 287.27 275.126 283.412 259.947 276.187C224.628 259.375 207.813 234.732 199.925 217.021C192.892 201.229 189.949 184.109 191.27 167.985C187.747 174.794 183.262 184.511 177.894 198.211C163.656 234.541 133.73 268.036 97.8392 287.811C75.4416 300.151 50.8499 307.323 24.7479 309.127C-4.99031 311.183 -36.6995 306.228 -69.4871 294.395C-105.192 281.513 -133.716 262.064 -154.266 236.587C-173.575 212.652 -184.987 183.823 -187.27 153.215C-189.709 120.523 -182.214 74.0629 -154.441 38.9484C-178.798 35.4761 -211.812 48.8937 -240.506 74.3442L-245.201 69.1061C-212.54 40.1366 -174.03 26.1081 -147.084 33.3282L-141.641 34.7866L-145.322 39.0079C-174.794 72.9451 -182.682 119.991 -180.241 152.713C-175.65 214.27 -134.41 263.497 -67.0987 287.784C-35.2329 299.28 -4.50015 304.098 24.2523 302.11C49.3231 300.378 72.9334 293.493 94.4261 281.652C128.922 262.646 157.67 230.492 171.326 195.642C186.565 156.757 194.98 148.672 195.89 147.877L205.35 139.619L201.576 151.586C195.497 170.868 197.244 193.678 206.369 214.169C213.773 230.796 229.605 253.951 262.977 269.835C295.997 285.554 330.288 280.425 350.776 277.363C355.077 276.719 358.792 276.164 361.681 275.942C362.92 275.846 364.374 275.71 366.016 275.558C385.798 273.718 432.122 269.407 456.61 300.533C478.797 328.735 480.852 363.121 482.84 396.373C484.659 426.8 486.376 455.539 502.799 478.495C511.478 490.625 524.266 500.098 543.041 508.308L540.216 514.754Z" fill="url(#paint3_linear)"/>
<path d="M567.144 495.599C514.691 478.742 500.656 462.614 494.384 373.522C490.853 323.354 479.141 297.24 451.175 277.169C435.882 266.196 407.705 263.716 367.418 269.795C364.228 270.276 363.22 270.423 362.477 270.389C361.911 270.439 360.055 270.76 358.258 271.072C344.815 273.405 310.271 279.396 281.715 271.747C280.13 271.322 278.566 270.856 277.022 270.344C237.923 257.383 210.453 227.639 203.54 190.782C198.545 164.157 207.695 139.196 215.258 124.228C208.899 128.073 199.859 135.326 190.507 148.701C179.357 164.649 172.857 178.522 166.571 191.939C162.614 200.387 158.876 208.367 154.269 216.132C140.454 239.421 86.4609 313.776 -28.2955 292.79C-34.5661 291.645 -40.5733 290.285 -46.3101 288.748C-96.7579 275.233 -126.967 247.744 -143.877 225.916C-165.517 197.981 -177.126 164.295 -174.931 135.804C-171.162 86.8553 -150.95 48.076 -131.306 31.9309C-157.01 21.3446 -195.917 21.6471 -234.132 52.4511L-238.567 46.9748C-194.981 11.8396 -150.172 14.194 -122.769 28.1091L-117.216 30.9294L-122.491 34.228C-141.612 46.1817 -164.027 86.0365 -167.9 136.352C-169.934 162.751 -158.591 195.423 -138.299 221.618C-120.222 244.953 -86.2381 275.044 -27.0325 285.87C83.2418 306.034 134.972 234.842 148.201 212.542C152.633 205.071 156.301 197.242 160.184 188.953C166.297 175.904 173.226 161.115 184.724 144.67C203.808 117.374 222.016 113.396 222.782 113.239L230.742 111.618L226.498 118.529C219.74 129.529 204.651 158.466 210.472 189.495C216.907 223.796 242.615 251.524 279.239 263.666C306.901 272.831 343.331 266.517 357.043 264.138C360.718 263.501 361.848 263.312 362.7 263.353C363.203 263.313 364.806 263.071 366.357 262.837C382.076 260.464 429.914 253.244 455.287 271.457C489.475 295.991 498.284 328.514 501.419 373.036C504.621 418.526 509.593 442.239 519.156 457.611C529.073 473.555 544.43 480.908 569.3 488.9L567.144 495.599Z" fill="url(#paint4_linear)"/>
<path d="M372.395 112.744C385.233 112.744 395.641 102.336 395.641 89.4979C395.641 76.6596 385.233 66.252 372.395 66.252C359.556 66.252 349.149 76.6596 349.149 89.4979C349.149 102.336 359.556 112.744 372.395 112.744Z" fill="url(#paint5_radial)"/>
<path d="M372.395 112.744C385.233 112.744 395.641 102.336 395.641 89.4979C395.641 76.6596 385.233 66.252 372.395 66.252C359.556 66.252 349.149 76.6596 349.149 89.4979C349.149 102.336 359.556 112.744 372.395 112.744Z" fill="url(#paint6_radial)"/>
<path d="M372.76 116.922C357.737 116.922 345.517 104.702 345.517 89.6803C345.517 74.6589 357.737 62.4382 372.76 62.4382C387.78 62.4382 400.001 74.6589 400.001 89.6803C400.001 104.702 387.78 116.922 372.76 116.922ZM372.76 63.5266C358.339 63.5266 346.606 75.2588 346.606 89.6803C346.606 104.102 358.337 115.834 372.76 115.834C387.179 115.834 398.912 104.102 398.912 89.6803C398.912 75.2588 387.179 63.5266 372.76 63.5266Z" fill="#999999"/>
<path d="M332.518 75.4269C338.497 75.4269 343.344 70.5798 343.344 64.6006C343.344 58.6214 338.497 53.7743 332.518 53.7743C326.539 53.7743 321.692 58.6214 321.692 64.6006C321.692 70.5798 326.539 75.4269 332.518 75.4269Z" fill="url(#paint7_radial)"/>
<path d="M332.518 75.4269C338.497 75.4269 343.344 70.5798 343.344 64.6006C343.344 58.6214 338.497 53.7743 332.518 53.7743C326.539 53.7743 321.692 58.6214 321.692 64.6006C321.692 70.5798 326.539 75.4269 332.518 75.4269Z" fill="url(#paint8_radial)"/>
<path d="M332.688 77.3728C325.691 77.3728 320 71.6824 320 64.6864C320 57.6905 325.691 52 332.688 52C339.683 52 345.375 57.6905 345.375 64.6864C345.375 71.6824 339.683 77.3728 332.688 77.3728ZM332.688 52.5065C325.971 52.5065 320.508 57.9709 320.508 64.6864C320.508 71.402 325.971 76.8648 332.688 76.8648C339.402 76.8648 344.867 71.402 344.867 64.6864C344.867 57.9709 339.404 52.5065 332.688 52.5065Z" fill="#999999"/>
<path d="M449.56 401.837C456.837 401.837 462.735 395.938 462.735 388.662C462.735 381.385 456.837 375.486 449.56 375.486C442.284 375.486 436.385 381.385 436.385 388.662C436.385 395.938 442.284 401.837 449.56 401.837Z" fill="url(#paint9_radial)"/>
<path d="M449.56 401.837C456.837 401.837 462.735 395.938 462.735 388.662C462.735 381.385 456.837 375.486 449.56 375.486C442.284 375.486 436.385 381.385 436.385 388.662C436.385 395.938 442.284 401.837 449.56 401.837Z" fill="url(#paint10_radial)"/>
<path d="M449.765 404.528C441.072 404.528 434 397.457 434 388.764C434 380.072 441.071 373 449.765 373C458.458 373 465.53 380.07 465.53 388.764C465.53 397.457 458.458 404.528 449.765 404.528ZM449.765 374.27C441.773 374.27 435.27 380.771 435.27 388.764C435.27 396.755 441.773 403.257 449.765 403.257C457.754 403.257 464.262 396.755 464.262 388.764C464.262 380.771 457.754 374.27 449.765 374.27Z" fill="#CCCCCC"/>
<path d="M75.8576 170.121C80.9348 170.121 85.0506 166.005 85.0506 160.928C85.0506 155.851 80.9348 151.735 75.8576 151.735C70.7804 151.735 66.6646 155.851 66.6646 160.928C66.6646 166.005 70.7804 170.121 75.8576 170.121Z" fill="url(#paint11_radial)"/>
<path d="M75.8576 170.121C80.9348 170.121 85.0506 166.005 85.0506 160.928C85.0506 155.851 80.9348 151.735 75.8576 151.735C70.7804 151.735 66.6646 155.851 66.6646 160.928C66.6646 166.005 70.7804 170.121 75.8576 170.121Z" fill="url(#paint12_radial)"/>
<path d="M76 171.999C69.9348 171.999 65.0005 167.065 65.0005 161C65.0005 154.934 69.9339 150 76 150C82.0662 150 87.0005 154.933 87.0005 161C87.0005 167.065 82.0662 171.999 76 171.999ZM76 150.886C70.4236 150.886 65.8865 155.422 65.8865 161C65.8865 166.575 70.4236 171.112 76 171.112C81.5746 171.112 86.1154 166.575 86.1154 161C86.1154 155.422 81.5746 150.886 76 150.886Z" fill="#CCCCCC"/>
</g>
<defs>
<linearGradient id="paint0_linear" x1="-260.029" y1="127.037" x2="1832.62" y2="687.76" gradientUnits="userSpaceOnUse">
<stop stop-color="#C5CBF9"/>
<stop offset="0.541667" stop-color="#F9F9FF"/>
</linearGradient>
<linearGradient id="paint1_linear" x1="-260.029" y1="127.037" x2="1832.62" y2="687.76" gradientUnits="userSpaceOnUse">
<stop stop-color="#C5CBF9"/>
<stop offset="0.541667" stop-color="#F9F9FF"/>
</linearGradient>
<linearGradient id="paint2_linear" x1="-260.029" y1="127.037" x2="1832.62" y2="687.76" gradientUnits="userSpaceOnUse">
<stop stop-color="#C5CBF9"/>
<stop offset="0.541667" stop-color="#F9F9FF"/>
</linearGradient>
<linearGradient id="paint3_linear" x1="-260.029" y1="127.037" x2="1832.62" y2="687.76" gradientUnits="userSpaceOnUse">
<stop stop-color="#C5CBF9"/>
<stop offset="0.541667" stop-color="#F9F9FF"/>
</linearGradient>
<linearGradient id="paint4_linear" x1="-260.029" y1="127.037" x2="1832.62" y2="687.76" gradientUnits="userSpaceOnUse">
<stop stop-color="#C5CBF9"/>
<stop offset="0.541667" stop-color="#F9F9FF"/>
</linearGradient>
<radialGradient id="paint5_radial" cx="0" cy="0" r="1" gradientUnits="userSpaceOnUse" gradientTransform="translate(368.739 81.1224) rotate(38.5891) scale(20.0722 26.5026)">
<stop offset="0.3521" stop-color="#F0EEEF"/>
<stop offset="0.4847" stop-color="#E9DCBD"/>
<stop offset="0.605" stop-color="#E8D8B3"/>
<stop offset="0.787" stop-color="#C9B299"/>
<stop offset="1" stop-color="#9E8666"/>
</radialGradient>
<radialGradient id="paint6_radial" cx="0" cy="0" r="1" gradientUnits="userSpaceOnUse" gradientTransform="translate(379.913 95.5504) rotate(38.5891) scale(13.677 18.4313)">
<stop offset="0.3782" stop-color="#EDE7E2"/>
<stop offset="0.8759" stop-color="#E8D8B3" stop-opacity="0"/>
</radialGradient>
<radialGradient id="paint7_radial" cx="0" cy="0" r="1" gradientUnits="userSpaceOnUse" gradientTransform="translate(330.806 60.6905) rotate(38.5892) scale(9.34748 12.342)">
<stop offset="0.3521" stop-color="#F0EEEF"/>
<stop offset="0.4847" stop-color="#E9DCBD"/>
<stop offset="0.605" stop-color="#E8D8B3"/>
<stop offset="0.787" stop-color="#C9B299"/>
<stop offset="1" stop-color="#9E8666"/>
</radialGradient>
<radialGradient id="paint8_radial" cx="0" cy="0" r="1" gradientUnits="userSpaceOnUse" gradientTransform="translate(336.013 67.4045) rotate(38.5892) scale(6.36882 8.58271)">
<stop offset="0.3782" stop-color="#EDE7E2"/>
<stop offset="0.8759" stop-color="#E8D8B3" stop-opacity="0"/>
</radialGradient>
<radialGradient id="paint9_radial" cx="0" cy="0" r="1" gradientUnits="userSpaceOnUse" gradientTransform="translate(447.491 383.911) rotate(38.5891) scale(11.3756 15.0199)">
<stop offset="0.2997" stop-color="#F2F2F2"/>
<stop offset="0.4079" stop-color="#E6E6E6"/>
<stop offset="0.5583" stop-color="#CCCCCC"/>
<stop offset="0.7177" stop-color="#B3B3B3"/>
<stop offset="0.908" stop-color="#808080"/>
</radialGradient>
<radialGradient id="paint10_radial" cx="0" cy="0" r="1" gradientUnits="userSpaceOnUse" gradientTransform="translate(453.986 393.353) rotate(38.5891) scale(9.23642 12.4471)">
<stop offset="0.3778" stop-color="#E6E6E6"/>
<stop offset="0.8759" stop-color="#F2F2F2" stop-opacity="0"/>
</radialGradient>
<radialGradient id="paint11_radial" cx="0" cy="0" r="1" gradientUnits="userSpaceOnUse" gradientTransform="translate(74.4138 157.613) rotate(38.5891) scale(7.93743 10.4803)">
<stop offset="0.2997" stop-color="#F2F2F2"/>
<stop offset="0.4079" stop-color="#E6E6E6"/>
<stop offset="0.5583" stop-color="#CCCCCC"/>
<stop offset="0.7177" stop-color="#B3B3B3"/>
<stop offset="0.908" stop-color="#808080"/>
</radialGradient>
<radialGradient id="paint12_radial" cx="0" cy="0" r="1" gradientUnits="userSpaceOnUse" gradientTransform="translate(78.9454 164.201) rotate(38.5891) scale(6.44478 8.68507)">
<stop offset="0.3778" stop-color="#E6E6E6"/>
<stop offset="0.8759" stop-color="#F2F2F2" stop-opacity="0"/>
</radialGradient>
</defs>
</svg>