<svg width="802" height="567" viewBox="0 0 802 567" fill="none" xmlns="http://www.w3.org/2000/svg">
<path d="M354.707 388.46C354.528 383.179 354.599 377.686 354.675 371.871C354.792 362.957 354.912 353.739 354.111 344.595C350.605 304.576 369.62 281.95 374.903 278.081C399.567 260.017 422.806 258.967 445.279 257.949C463.558 257.12 480.823 256.339 498.818 246.966C520.357 235.745 530.307 211.969 530.612 193.383C531.124 162.288 499.788 140.068 499.474 139.848L496.114 137.505L499.723 135.569C512.347 128.805 539.495 125.316 579.743 177.824C600.603 205.035 627.695 219.481 660.266 220.753C691.025 221.942 716.861 210.715 724.048 207.241C735.655 201.632 748.176 192.25 758.396 181.505C771.204 168.041 780.133 152.79 784.22 137.399C790.698 113.008 785.475 88.2465 768.7 63.8C749.9 36.4026 727.782 33.5801 727.562 33.5553L723.575 33.0995L725.715 29.7103C730.676 21.8843 743.631 11.2461 761.399 5.12064C775.715 0.182852 797.766 -3.37732 821.504 7.6918L819.378 12.2498C797.162 1.89355 776.479 5.2419 763.038 9.87583C752.66 13.455 739.304 20.8544 732.179 29.3889C739.938 31.4575 757.38 38.4113 772.849 60.9542C790.492 86.6643 795.953 112.817 789.082 138.689C784.78 154.893 775.429 170.897 762.041 184.972C751.419 196.139 738.369 205.906 726.238 211.77C719.161 215.19 694.642 225.871 664.857 225.872C663.274 225.872 661.682 225.841 660.07 225.779C625.934 224.445 597.566 209.339 575.752 180.883C557.132 156.592 539.632 142.157 523.742 137.982C515.483 135.813 509.472 136.979 505.755 138.331C514.369 145.344 536.097 165.809 535.641 193.465C535.335 212.071 526.119 238.415 501.142 251.424C482.162 261.312 463.529 262.156 445.508 262.971C423.781 263.954 401.314 264.973 377.877 282.137C373.366 285.44 355.856 306.855 359.122 344.155C359.946 353.549 359.823 362.896 359.705 371.936C359.629 377.69 359.559 383.125 359.734 388.287L354.707 388.46Z" fill="url(#paint0_linear)"/>
<path d="M825.797 23.0703H824.336V23.1258C824.336 23.1784 824.855 23.2251 824.966 23.2792L827.302 18.749C791.285 1.37468 760.623 10.2846 743.866 24.4128L740.506 27.2747L744.728 28.7137C759.963 33.929 782.053 58.0205 792.964 92.398C798.688 110.436 796.154 135.008 786.339 156.525C777.597 175.693 758.917 202.143 719.557 219.283C646.259 251.206 598.7 210.068 585.869 196.701C581.57 192.222 577.743 187.37 573.694 182.234C567.314 174.146 560.087 164.981 549.414 155.405C531.702 139.513 518.405 139.701 517.844 139.713L512.052 139.877L516.129 143.996C522.62 150.554 537.829 168.238 538.855 190.771C539.99 215.679 526.664 239.142 503.211 253.534C485.493 264.404 459.163 265.917 449.25 266.487C446.592 266.639 445.776 266.693 445.191 266.858C444.835 266.912 443.682 267.004 442.566 267.094C431.26 267.993 396.857 270.733 382.208 287.52C362.472 310.138 361.665 334.195 366.764 365.68C371.97 397.85 363.378 421.031 356.56 432.01C341.984 455.478 305.64 470.912 274.88 469.717C242.31 468.444 215.218 454.001 194.358 426.786C154.107 374.279 126.96 377.766 114.338 384.531L110.732 386.465L114.085 388.809C114.4 389.029 145.735 411.306 145.225 442.346C144.921 460.93 134.971 484.706 113.43 495.927C100.563 502.629 86.8788 505.618 73.6461 508.506C58.8532 511.736 44.8798 514.788 32.1248 522.575C17.6372 531.422 7.5294 544.8 0 564.68L4.78149 566.438V566.519H827.26V557.754H825.799L825.797 23.0703Z" fill="url(#paint1_linear)"/>
<path d="M247.362 449.62C254.08 449.62 259.525 444.175 259.525 437.458C259.525 430.74 254.08 425.295 247.362 425.295C240.645 425.295 235.2 430.74 235.2 437.458C235.2 444.175 240.645 449.62 247.362 449.62Z" fill="url(#paint2_radial)"/>
<path d="M247.362 449.62C254.08 449.62 259.525 444.175 259.525 437.458C259.525 430.74 254.08 425.295 247.362 425.295C240.645 425.295 235.2 430.74 235.2 437.458C235.2 444.175 240.645 449.62 247.362 449.62Z" fill="url(#paint3_radial)"/>
<path d="M247.553 452.106C239.528 452.106 233 445.577 233 437.553C233 429.528 239.528 423 247.553 423C255.577 423 262.106 429.528 262.106 437.553C262.106 445.577 255.577 452.106 247.553 452.106ZM247.553 424.172C240.173 424.172 234.171 430.174 234.171 437.553C234.171 444.931 240.173 450.933 247.553 450.933C254.93 450.933 260.935 444.931 260.935 437.553C260.935 430.174 254.93 424.172 247.553 424.172Z" fill="#CCCCCC"/>
<path d="M630.438 467.199C635.787 467.199 640.123 462.863 640.123 457.514C640.123 452.165 635.787 447.829 630.438 447.829C625.089 447.829 620.752 452.165 620.752 457.514C620.752 462.863 625.089 467.199 630.438 467.199Z" fill="url(#paint4_radial)"/>
<path d="M630.438 467.199C635.787 467.199 640.123 462.863 640.123 457.514C640.123 452.165 635.787 447.829 630.438 447.829C625.089 447.829 620.752 452.165 620.752 457.514C620.752 462.863 625.089 467.199 630.438 467.199Z" fill="url(#paint5_radial)"/>
<path d="M630.588 469.179C624.199 469.179 619 463.98 619 457.589C619 451.199 624.199 446 630.588 446C636.979 446 642.178 451.199 642.178 457.589C642.178 463.98 636.979 469.179 630.588 469.179ZM630.588 446.934C624.712 446.934 619.933 451.715 619.933 457.589C619.933 463.464 624.714 468.244 630.588 468.244C636.463 468.244 641.245 463.464 641.245 457.589C641.245 451.715 636.463 446.934 630.588 446.934Z" fill="#CCCCCC"/>
<path d="M313.229 449.575C327.667 449.575 339.371 437.871 339.371 423.433C339.371 408.995 327.667 397.291 313.229 397.291C298.791 397.291 287.086 408.995 287.086 423.433C287.086 437.871 298.791 449.575 313.229 449.575Z" fill="url(#paint6_radial)"/>
<path d="M313.229 449.575C327.667 449.575 339.371 437.871 339.371 423.433C339.371 408.995 327.667 397.291 313.229 397.291C298.791 397.291 287.086 408.995 287.086 423.433C287.086 437.871 298.791 449.575 313.229 449.575Z" fill="url(#paint7_radial)"/>
<path d="M313.638 454.273C296.743 454.273 283 440.53 283 423.637C283 406.743 296.743 393 313.638 393C330.53 393 344.273 406.743 344.273 423.637C344.273 440.53 330.53 454.273 313.638 454.273ZM313.638 394.226C297.419 394.226 284.226 407.419 284.226 423.637C284.226 439.856 297.419 453.048 313.638 453.048C329.854 453.048 343.049 439.856 343.049 423.637C343.049 407.419 329.853 394.226 313.638 394.226Z" fill="#999999"/>
<path d="M753.56 103.837C760.836 103.837 766.735 97.9379 766.735 90.6614C766.735 83.385 760.836 77.4863 753.56 77.4863C746.283 77.4863 740.385 83.385 740.385 90.6614C740.385 97.9379 746.283 103.837 753.56 103.837Z" fill="url(#paint8_radial)"/>
<path d="M753.56 103.837C760.836 103.837 766.735 97.9379 766.735 90.6614C766.735 83.385 760.836 77.4863 753.56 77.4863C746.283 77.4863 740.385 83.385 740.385 90.6614C740.385 97.9379 746.283 103.837 753.56 103.837Z" fill="url(#paint9_radial)"/>
<path d="M753.764 106.528C745.072 106.528 738 99.4566 738 90.7641C738 82.0717 745.07 75 753.764 75C762.458 75 769.53 82.0704 769.53 90.7641C769.53 99.4566 762.458 106.528 753.764 106.528ZM753.764 76.2698C745.772 76.2698 739.27 82.7709 739.27 90.7641C739.27 98.7547 745.772 105.257 753.764 105.257C761.753 105.257 768.261 98.7547 768.261 90.7641C768.261 82.7709 761.753 76.2698 753.764 76.2698Z" fill="#CCCCCC"/>
<path d="M737.588 66.198C741.211 66.198 744.149 63.2606 744.149 59.6371C744.149 56.0136 741.211 53.0762 737.588 53.0762C733.964 53.0762 731.027 56.0136 731.027 59.6371C731.027 63.2606 733.964 66.198 737.588 66.198Z" fill="url(#paint10_radial)"/>
<path d="M737.588 66.198C741.211 66.198 744.149 63.2606 744.149 59.6371C744.149 56.0136 741.211 53.0762 737.588 53.0762C733.964 53.0762 731.027 56.0136 731.027 59.6371C731.027 63.2606 733.964 66.198 737.588 66.198Z" fill="url(#paint11_radial)"/>
<path d="M737.69 67.3781C733.449 67.3781 730 63.9287 730 59.6891C730 55.4481 733.449 52 737.69 52C741.93 52 745.379 55.4481 745.379 59.6891C745.379 63.9287 741.93 67.3781 737.69 67.3781ZM737.69 52.3067C733.618 52.3067 730.308 55.6184 730.308 59.6891C730.308 63.7598 733.618 67.0714 737.69 67.0714C741.76 67.0714 745.073 63.7598 745.073 59.6891C745.073 55.6184 741.76 52.3067 737.69 52.3067Z" fill="#999999"/>
<defs>
<linearGradient id="paint0_linear" x1="413.651" y1="9.16455" x2="413.651" y2="566.519" gradientUnits="userSpaceOnUse">
<stop stop-color="#CDBFFF"/>
<stop offset="0.432292" stop-color="#E0D2FF"/>
<stop offset="1" stop-color="#F1FAFF"/>
</linearGradient>
<linearGradient id="paint1_linear" x1="413.651" y1="9.16455" x2="413.651" y2="566.519" gradientUnits="userSpaceOnUse">
<stop stop-color="#CDBFFF"/>
<stop offset="0.432292" stop-color="#E0D2FF"/>
<stop offset="1" stop-color="#F1FAFF"/>
</linearGradient>
<radialGradient id="paint2_radial" cx="0" cy="0" r="1" gradientUnits="userSpaceOnUse" gradientTransform="translate(245.437 433.072) rotate(38.5891) scale(10.5012 13.8654)">
<stop offset="0.2997" stop-color="#F2F2F2"/>
<stop offset="0.4079" stop-color="#E6E6E6"/>
<stop offset="0.5583" stop-color="#CCCCCC"/>
<stop offset="0.7177" stop-color="#B3B3B3"/>
<stop offset="0.908" stop-color="#808080"/>
</radialGradient>
<radialGradient id="paint3_radial" cx="0" cy="0" r="1" gradientUnits="userSpaceOnUse" gradientTransform="translate(251.429 441.795) rotate(38.5891) scale(8.5263 11.4902)">
<stop offset="0.3778" stop-color="#E6E6E6"/>
<stop offset="0.8759" stop-color="#F2F2F2" stop-opacity="0"/>
</radialGradient>
<radialGradient id="paint4_radial" cx="0" cy="0" r="1" gradientUnits="userSpaceOnUse" gradientTransform="translate(628.888 454.015) rotate(38.5891) scale(8.36203 11.0409)">
<stop offset="0.2997" stop-color="#F2F2F2"/>
<stop offset="0.4079" stop-color="#E6E6E6"/>
<stop offset="0.5583" stop-color="#CCCCCC"/>
<stop offset="0.7177" stop-color="#B3B3B3"/>
<stop offset="0.908" stop-color="#808080"/>
</radialGradient>
<radialGradient id="paint5_radial" cx="0" cy="0" r="1" gradientUnits="userSpaceOnUse" gradientTransform="translate(633.66 460.959) rotate(38.5891) scale(6.78946 9.14957)">
<stop offset="0.3778" stop-color="#E6E6E6"/>
<stop offset="0.8759" stop-color="#F2F2F2" stop-opacity="0"/>
</radialGradient>
<radialGradient id="paint6_radial" cx="0" cy="0" r="1" gradientUnits="userSpaceOnUse" gradientTransform="translate(309.112 414.015) rotate(38.5891) scale(22.5727 29.8041)">
<stop offset="0.3521" stop-color="#F0EEEF"/>
<stop offset="0.4847" stop-color="#E9DCBD"/>
<stop offset="0.605" stop-color="#E8D8B3"/>
<stop offset="0.787" stop-color="#C9B299"/>
<stop offset="1" stop-color="#9E8666"/>
</radialGradient>
<radialGradient id="paint7_radial" cx="0" cy="0" r="1" gradientUnits="userSpaceOnUse" gradientTransform="translate(321.678 430.243) rotate(38.5891) scale(15.3802 20.7266)">
<stop offset="0.3782" stop-color="#EDE7E2"/>
<stop offset="0.8759" stop-color="#E8D8B3" stop-opacity="0"/>
</radialGradient>
<radialGradient id="paint8_radial" cx="0" cy="0" r="1" gradientUnits="userSpaceOnUse" gradientTransform="translate(751.491 85.9111) rotate(38.5891) scale(11.3756 15.0199)">
<stop offset="0.2997" stop-color="#F2F2F2"/>
<stop offset="0.4079" stop-color="#E6E6E6"/>
<stop offset="0.5583" stop-color="#CCCCCC"/>
<stop offset="0.7177" stop-color="#B3B3B3"/>
<stop offset="0.908" stop-color="#808080"/>
</radialGradient>
<radialGradient id="paint9_radial" cx="0" cy="0" r="1" gradientUnits="userSpaceOnUse" gradientTransform="translate(757.985 95.3529) rotate(38.5891) scale(9.23642 12.4471)">
<stop offset="0.3778" stop-color="#E6E6E6"/>
<stop offset="0.8759" stop-color="#F2F2F2" stop-opacity="0"/>
</radialGradient>
<radialGradient id="paint10_radial" cx="0" cy="0" r="1" gradientUnits="userSpaceOnUse" gradientTransform="translate(736.551 57.2645) rotate(38.5892) scale(5.66514 7.48002)">
<stop offset="0.3521" stop-color="#F0EEEF"/>
<stop offset="0.4847" stop-color="#E9DCBD"/>
<stop offset="0.605" stop-color="#E8D8B3"/>
<stop offset="0.787" stop-color="#C9B299"/>
<stop offset="1" stop-color="#9E8666"/>
</radialGradient>
<radialGradient id="paint11_radial" cx="0" cy="0" r="1" gradientUnits="userSpaceOnUse" gradientTransform="translate(739.709 61.3299) rotate(38.5892) scale(3.86007 5.20188)">
<stop offset="0.3782" stop-color="#EDE7E2"/>
<stop offset="0.8759" stop-color="#E8D8B3" stop-opacity="0"/>
</radialGradient>
</defs>
</svg>