<svg width="586" height="317" viewBox="0 0 586 317" fill="none" xmlns="http://www.w3.org/2000/svg">
<path d="M98.6712 277.807C62.0618 280.267 27.8787 273.229 3.23762 257.043L0.00101176 255.106V263.693C0.912725 264.291 1.84935 264.89 2.78593 265.466C25.5083 279.442 53.2669 286.367 85.5177 286.367C89.0496 286.367 92.6104 286.279 96.1909 286.104C96.7493 283.312 97.5596 280.575 98.6599 277.949C98.663 277.903 98.6671 277.855 98.6712 277.807Z" fill="url(#paint0_linear)"/>
<path d="M178.122 260.716C177.522 259.956 176.984 259.166 176.615 258.263C165.833 263.215 154.332 267.357 142.234 270.566C130.453 273.692 118.638 275.853 107.008 277.079C106.399 279.966 105.461 282.749 104.498 285.54C117.686 284.406 131.082 282.101 144.36 278.578C157.404 275.118 169.794 270.612 181.381 265.19C179.748 264.018 178.768 262.466 178.122 260.716Z" fill="url(#paint1_linear)"/>
<path d="M359.154 0.222628C336.66 -2.18305 317.518 15.4648 309.76 26.2748C290.694 52.8368 282.806 86.6189 275.18 119.289C269.296 144.494 263.738 168.301 253.488 188.431C239.567 215.769 215.21 238.733 184.107 254.63C185.631 256.985 187.237 259.281 189.121 261.363C221.18 244.69 246.347 220.718 260.873 192.192C271.581 171.164 277.514 145.75 283.252 121.172C290.695 89.2918 298.389 56.3262 316.494 31.1048C317.1 30.2605 329.085 13.8413 346.335 9.39053C347.337 9.02066 351.708 8.54408 352.24 8.38453C352.24 8.38453 360.633 3.64052 365.07 0.854612L359.154 0.222628Z" fill="url(#paint2_linear)"/>
<path d="M70.4568 307.034C37.8786 304.817 7.58792 298.372 0.00101176 291.227L0.0756288 299.65C6.94145 305.968 35.4211 312.6 66.0888 315.148C67.0306 313.393 68.567 310.058 70.4568 307.034Z" fill="url(#paint3_linear)"/>
<path d="M197.159 283.416C196.534 283.752 195.548 284.276 194.919 284.604C177.158 293.859 157.188 300.425 133.867 304.683C118.16 307.549 98.1305 308.252 79.343 307.516C79.2186 307.695 76.1271 314.739 75.491 315.718C75.463 315.761 75.4236 315.786 75.3905 315.824C80.4878 316.089 85.6089 316.234 90.6772 316.234C107.035 316.234 122.763 315.135 135.353 312.837C159.504 308.429 180.241 301.598 198.748 291.954C200.456 291.064 202.471 289.939 204.149 288.997C201.855 287.164 199.369 285.456 197.159 283.416Z" fill="url(#paint4_linear)"/>
<path d="M314.585 74.9635C310.675 83.9231 306.333 108.719 302.223 134.178C301.899 136.183 301.621 137.906 301.396 139.261C298.254 158.239 291.809 177.232 282.243 195.713C278.403 203.132 264.226 226.736 245.004 246.594C231.979 260.05 219.15 270.487 204.575 279.176C206.415 280.742 211.504 284.045 211.966 284.356C226.09 275.594 238.266 265.471 250.961 252.358C268.773 233.957 283.831 210.679 289.606 199.522C299.571 180.269 306.29 160.45 309.574 140.614C309.8 139.25 310.08 137.515 310.406 135.498C311.421 129.213 313.032 119.235 314.86 109.227C314.95 106.122 317.471 96.9337 317.471 96.9337C318.931 80.1002 320.096 69.6072 321.082 60.0777L314.585 74.9635Z" fill="url(#paint5_linear)"/>
<path d="M335.446 20.414C309.583 34.9216 296.176 85.5891 287.385 128.108C277.833 174.298 262.448 207.527 238.967 232.68C223.035 249.744 202.728 263.925 179.576 274.427C181.651 276.453 183.568 278.622 185.436 280.839C208.57 270.004 228.919 255.587 245.026 238.335C269.591 212.024 285.629 177.531 295.502 129.786C299.506 110.42 308.878 65.1449 325.985 40.8167C330.755 34.5994 339.055 22.7648 344.353 15.4203L335.446 20.414Z" fill="url(#paint6_linear)"/>
<path d="M172.181 277.615C158.642 283.158 144.23 287.479 129.226 290.42C81.7662 299.725 35.7443 293.245 9.00109 277.769C6.77257 276.479 1.77991 273.143 0 271.801V281.337C12.4325 290.201 31.7027 297.812 58.0513 300.883C67.4916 301.983 77.2718 302.527 86.9951 302.527C102.265 302.527 117.393 301.185 130.821 298.552C147.222 295.336 162.948 290.518 177.668 284.297C175.395 282.568 173.578 279.99 172.181 277.615Z" fill="url(#paint7_linear)"/>
<path d="M418.952 156.582C396.234 149.775 376.338 135.269 363.115 114.87C344.029 85.4334 343.763 43.7878 362.424 6.18579L365.07 0.854612C361.055 3.35457 357.434 5.15934 352.24 8.38453C335.548 46.5366 336.801 89.5216 356.16 119.378C370.879 142.08 393.215 158.038 418.648 165.123C418.443 162.275 418.592 159.422 418.952 156.582Z" fill="url(#paint8_linear)"/>
<path d="M488.71 154.102C478.89 157.267 468.84 159.588 458.25 160.536C447.562 161.492 437.018 160.781 426.915 158.609C426.905 160.082 426.686 161.526 426.721 163.028C426.751 164.39 426.871 165.728 426.756 167.058C437.177 169.138 448.014 169.775 458.989 168.793C470.168 167.792 480.854 165.307 491.197 161.973C489.691 159.921 489.088 156.327 488.71 154.102Z" fill="url(#paint9_linear)"/>
<path d="M578.738 116.287C562.8 121.363 547.523 128.576 532.748 135.553C520.467 141.35 508.526 146.987 496.336 151.478C497.273 154.067 498.118 156.688 499.042 159.28C511.852 154.583 524.174 148.766 536.286 143.046C550.814 136.187 565.839 129.093 581.25 124.184C582.744 123.709 583.855 123.227 585.36 122.792V114.204C583.785 114.659 580.304 115.788 578.738 116.287Z" fill="url(#paint10_linear)"/>
<path d="M585.362 150.326C582.883 150.834 578.826 151.709 576.375 152.33C561.008 156.229 546.199 162.159 531.811 167.923C524.622 170.801 517.292 173.727 509.895 176.403C512.34 178.162 514.419 180.396 515.836 183.058C522.279 180.664 528.638 178.121 534.893 175.616C551.235 169.072 568.135 162.303 585.437 158.75L585.362 150.326Z" fill="url(#paint11_linear)"/>
<path d="M501.691 179.241C498.6 180.256 495.501 181.212 492.399 182.075C469.811 188.355 448.511 189.77 429.089 186.278C428.176 186.115 427.271 185.925 426.362 185.743C426.336 188.103 426.037 190.458 425.609 192.785C425.606 193.204 425.598 193.625 425.588 194.043C426.265 194.177 426.941 194.313 427.621 194.435C448.28 198.151 470.821 196.678 494.618 190.06C499.012 188.837 503.373 187.445 507.703 185.959C505.541 183.866 503.531 181.626 501.691 179.241Z" fill="url(#paint12_linear)"/>
<path d="M418.297 184.356C418.265 184.204 418.238 184.05 418.201 183.897C403.445 180.099 389.439 174.115 377.194 166.321C344.808 145.71 325.898 114.566 322.51 76.2551L321.079 60.0794C321.079 60.0794 319.051 82.1502 317.469 96.9355C325.257 128.254 344.286 155.202 372.745 173.314C386.166 181.855 401.567 188.334 417.756 192.321C417.792 189.659 418.242 187.023 418.297 184.356Z" fill="url(#paint13_linear)"/>
<path d="M433.899 173.139C403.302 168.994 374.826 153.388 356.819 130.163C335.765 103.012 330.014 63.7988 341.432 25.2593C341.438 25.2416 341.443 25.2251 341.448 25.2085L344.353 15.419C341.311 19.0834 333.117 30.5151 330.875 34.4013C322.404 70.6263 329.846 108.904 350.269 135.242C369.744 160.359 400.564 177.163 433.58 181.446C433.589 180.213 433.926 173.369 433.899 173.139Z" fill="url(#paint14_linear)"/>
<path d="M580.057 133.49C575.347 134.859 570.477 136.275 566.111 137.903C556.052 141.657 545.969 146.01 536.217 150.222C509.389 161.807 481.647 173.785 451.978 174.237C451.37 174.248 450.768 174.252 450.159 174.252C447.367 174.252 444.582 174.137 441.807 173.941C441.78 174.358 441.958 179.97 441.396 182.221C444.311 182.424 447.237 182.54 450.169 182.54C450.813 182.54 451.46 182.535 452.104 182.526C483.42 182.048 511.93 169.737 539.502 157.832C549.159 153.663 559.145 149.35 569.007 145.67C573.085 144.148 577.804 142.776 582.368 141.45C583.593 141.094 584.202 140.781 585.361 140.437V131.937C584.217 132.276 581.266 133.138 580.057 133.49Z" fill="url(#paint15_linear)"/>
<defs>
<linearGradient id="paint0_linear" x1="30" y1="158" x2="377" y2="52" gradientUnits="userSpaceOnUse">
<stop stop-color="#BFC3E4"/>
<stop offset="0.9996" stop-color="#EDE7E2"/>
</linearGradient>
<linearGradient id="paint1_linear" x1="30" y1="158" x2="377" y2="52" gradientUnits="userSpaceOnUse">
<stop stop-color="#BFC3E4"/>
<stop offset="0.9996" stop-color="#EDE7E2"/>
</linearGradient>
<linearGradient id="paint2_linear" x1="30" y1="158" x2="377" y2="52" gradientUnits="userSpaceOnUse">
<stop stop-color="#BFC3E4"/>
<stop offset="0.9996" stop-color="#EDE7E2"/>
</linearGradient>
<linearGradient id="paint3_linear" x1="30" y1="158" x2="377" y2="52" gradientUnits="userSpaceOnUse">
<stop stop-color="#BFC3E4"/>
<stop offset="0.9996" stop-color="#EDE7E2"/>
</linearGradient>
<linearGradient id="paint4_linear" x1="30" y1="158" x2="377" y2="52" gradientUnits="userSpaceOnUse">
<stop stop-color="#BFC3E4"/>
<stop offset="0.9996" stop-color="#EDE7E2"/>
</linearGradient>
<linearGradient id="paint5_linear" x1="30" y1="158" x2="377" y2="52" gradientUnits="userSpaceOnUse">
<stop stop-color="#BFC3E4"/>
<stop offset="0.9996" stop-color="#EDE7E2"/>
</linearGradient>
<linearGradient id="paint6_linear" x1="30" y1="158" x2="377" y2="52" gradientUnits="userSpaceOnUse">
<stop stop-color="#BFC3E4"/>
<stop offset="0.9996" stop-color="#EDE7E2"/>
</linearGradient>
<linearGradient id="paint7_linear" x1="30" y1="158" x2="377" y2="52" gradientUnits="userSpaceOnUse">
<stop stop-color="#BFC3E4"/>
<stop offset="0.9996" stop-color="#EDE7E2"/>
</linearGradient>
<linearGradient id="paint8_linear" x1="30" y1="158" x2="377" y2="52" gradientUnits="userSpaceOnUse">
<stop stop-color="#BFC3E4"/>
<stop offset="0.9996" stop-color="#EDE7E2"/>
</linearGradient>
<linearGradient id="paint9_linear" x1="30" y1="158" x2="377" y2="52" gradientUnits="userSpaceOnUse">
<stop stop-color="#BFC3E4"/>
<stop offset="0.9996" stop-color="#EDE7E2"/>
</linearGradient>
<linearGradient id="paint10_linear" x1="30" y1="158" x2="377" y2="52" gradientUnits="userSpaceOnUse">
<stop stop-color="#BFC3E4"/>
<stop offset="0.9996" stop-color="#EDE7E2"/>
</linearGradient>
<linearGradient id="paint11_linear" x1="30" y1="158" x2="377" y2="52" gradientUnits="userSpaceOnUse">
<stop stop-color="#BFC3E4"/>
<stop offset="0.9996" stop-color="#EDE7E2"/>
</linearGradient>
<linearGradient id="paint12_linear" x1="30" y1="158" x2="377" y2="52" gradientUnits="userSpaceOnUse">
<stop stop-color="#BFC3E4"/>
<stop offset="0.9996" stop-color="#EDE7E2"/>
</linearGradient>
<linearGradient id="paint13_linear" x1="30" y1="158" x2="377" y2="52" gradientUnits="userSpaceOnUse">
<stop stop-color="#BFC3E4"/>
<stop offset="0.9996" stop-color="#EDE7E2"/>
</linearGradient>
<linearGradient id="paint14_linear" x1="30" y1="158" x2="377" y2="52" gradientUnits="userSpaceOnUse">
<stop stop-color="#BFC3E4"/>
<stop offset="0.9996" stop-color="#EDE7E2"/>
</linearGradient>
<linearGradient id="paint15_linear" x1="30" y1="158" x2="377" y2="52" gradientUnits="userSpaceOnUse">
<stop stop-color="#BFC3E4"/>
<stop offset="0.9996" stop-color="#EDE7E2"/>
</linearGradient>
</defs>
</svg>