<svg width="590" height="265" viewBox="0 0 590 265" fill="none" xmlns="http://www.w3.org/2000/svg">
<path d="M360.824 38.6941C359.523 29.4667 356.015 19.2391 351.584 10.7917C347.548 9.15251 344.241 7.84847 338.936 6.0339L341.775 10.538C347.294 19.2966 351.123 29.709 352.553 39.8593C353.831 48.9165 352.631 57.6427 348.546 69.0365C347.246 72.6625 347.16 74.7214 345.585 78.0425C346.936 76.632 355.812 73.5197 356.11 72.6876C360.622 60.1025 362.283 49.0438 360.824 38.6941Z" fill="url(#paint0_linear)"/>
<path d="M339.572 88.1501C333.191 98.787 325.087 107.677 315.068 115.031C300.473 125.745 282.655 132.89 260.595 136.878C237.427 141.066 221.889 142.981 191.058 143.255C175.378 143.404 161.958 142.661 150.119 142.013C123.711 140.566 102.851 139.424 73.6655 148.05C57.8272 152.731 17.0964 165.744 0 199.774C0 199.774 0.00104406 210.672 0 216.558L2.87116 211.618C21.4032 171.879 59.9393 160.818 76.0324 156.06C103.836 147.841 124.061 148.948 149.66 150.353C161.622 151.008 175.176 151.75 191.132 151.608C222.377 151.328 238.904 149.285 262.078 145.098C285.417 140.879 304.368 133.246 320.009 121.765C333.279 112.024 343.457 99.8498 350.9 84.8185C347.422 86.5047 343.426 87.2616 339.572 88.1501Z" fill="url(#paint1_linear)"/>
<path d="M355.323 89.5428C359.674 86.8157 364.579 85.4908 368.076 81.4806C368.141 81.4075 368.212 81.3731 368.28 81.3261C376.016 61.3616 377.508 39.7329 372.109 21.5455C368.555 18.8977 364.313 17.0978 360.605 14.6745L362.48 19.4187C370.67 40.1339 367.766 66.7364 355.323 89.5428Z" fill="url(#paint2_linear)"/>
<path d="M347.477 101.705C327.502 128.203 292.974 146.732 251.951 152.787C229 156.173 207.922 157.624 183.688 157.472C179.481 157.447 173.898 157.284 167.435 157.096C138.454 156.254 94.6594 154.98 76.9804 162.856C74.6898 163.878 72.2247 164.852 69.6146 165.883C51.3384 173.11 27.2728 181.614 0.0772337 230.076C0.0772337 230.076 0.0772113 238.893 0.00203917 244.057C0.00203917 244.057 10.4405 228.747 13.6688 223.709C36.6036 187.919 57.159 179.79 72.6852 173.651C75.3799 172.586 77.9253 171.581 80.3788 170.486C96.3205 163.384 140.688 164.675 167.191 165.447C173.705 165.637 179.332 165.801 183.636 165.826C208.348 165.982 229.781 164.502 253.169 161.05C298.232 154.4 336.02 133.243 356.846 103.007C358.65 100.387 360.319 97.6875 361.866 94.9322C360.154 95.758 350.788 100.669 347.477 101.705Z" fill="url(#paint3_linear)"/>
<path d="M389.39 46.8419C388.783 46.3304 380.761 29.3665 378.89 26.8806L380.072 35.8199C382.988 54.4083 379.339 73.2952 369.228 91.9557C360.349 108.342 346.869 123.68 330.246 136.312C313.478 149.054 294.632 157.791 274.23 162.28C253.634 166.811 229.406 171.531 205.866 172.182C200.048 172.341 190.981 172.265 180.483 172.175C147.469 171.893 102.255 171.505 84.6751 177.322C48.6113 189.254 33.4933 209.497 15.9876 232.937C11.0952 239.486 5.7851 245.705 0.00101959 252.703L0.00203917 265C5.15655 259.971 11.399 252.81 14.9905 248.132C17.6456 244.674 20.1805 241.281 22.6779 237.935C40.026 214.705 53.7293 196.358 87.2988 185.253C103.565 179.87 149.807 180.267 180.411 180.528C190.988 180.618 200.124 180.695 206.096 180.531C230.335 179.861 255.047 175.053 276.025 170.437C297.619 165.686 317.561 156.443 335.299 142.963C352.86 129.619 367.131 113.358 376.57 95.9356C385.075 80.2413 389.355 64.3351 389.387 48.4842C389.314 48.3965 389.496 46.9307 389.39 46.8419Z" fill="url(#paint4_linear)"/>
<path d="M403.839 19.925C418.405 31.276 426.169 47.4098 434.388 64.4916L436.085 68.0101C446.723 89.998 458.255 104.027 473.478 113.5C490.15 123.876 509.673 127.65 528.448 124.124C542.51 121.484 568.706 111.505 589.894 74.5658V57.6385L585.061 66.0369C576.496 82.1947 557.551 110.16 526.907 115.914C510.192 119.057 492.785 115.677 477.891 106.407C464.088 97.8179 453.513 84.8539 443.603 64.3716L441.915 60.8698C433.64 43.6731 425.083 25.8908 408.974 13.337C391.207 -0.508228 368.128 -3.69886 343.987 4.35082L338.936 6.0339C344.019 7.96123 345.709 8.42167 351.584 10.7917C370.794 5.96396 389.782 8.9708 403.839 19.925Z" fill="url(#paint5_linear)"/>
<path d="M409.594 48.243C413.718 55.1787 417.337 62.6166 420.837 69.8102C426.024 80.4731 431.388 91.4983 438.641 101.507C451.844 119.727 469.501 131.941 489.705 136.831C509.601 141.644 530.768 140.047 549.309 132.33C564.374 126.062 579.156 114.805 589.895 102.064V88.2628L586.111 93.5395C576.147 106.722 561.19 118.341 546.1 124.619C529.186 131.659 509.854 133.114 491.671 128.714C473.423 124.297 457.424 113.195 445.405 96.6059C438.58 87.1885 433.378 76.4963 428.348 66.156C424.774 58.8079 421.077 51.2102 416.775 43.9749C406.546 26.7699 387.734 9.80609 365.628 13.7714L360.607 14.6735C364.854 17.1187 368.234 18.9165 372.111 21.5444C372.854 21.5799 374.954 21.6801 375.686 21.772C389.978 23.573 402.231 35.8616 409.594 48.243Z" fill="url(#paint6_linear)"/>
<path d="M589.894 110.711L586.17 114.833C564.56 138.153 530.484 149.279 497.245 143.873C480.64 141.171 464.943 134.326 451.849 124.076C434.961 110.856 425.303 92.3596 418.083 76.0097C410.803 59.5293 391.549 34.8759 386.431 31.6415L378.891 26.8795C379.834 28.0144 385.274 39.3257 389.392 46.8409C396.151 55.3875 406.005 69.334 410.443 79.3841C418.08 96.6789 428.361 116.296 446.701 130.651C460.9 141.767 477.913 149.19 495.904 152.117C530.668 157.776 565.882 146.646 589.895 123.007C589.894 123.008 589.894 116.889 589.894 110.711Z" fill="url(#paint7_linear)"/>
<defs>
<linearGradient id="paint0_linear" x1="-1.84661e-06" y1="172.269" x2="656.712" y2="143.036" gradientUnits="userSpaceOnUse">
<stop stop-color="#B1F3F5"/>
<stop offset="1" stop-color="#CCD2FF"/>
</linearGradient>
<linearGradient id="paint1_linear" x1="-1.84661e-06" y1="172.269" x2="656.712" y2="143.036" gradientUnits="userSpaceOnUse">
<stop stop-color="#B1F3F5"/>
<stop offset="1" stop-color="#CCD2FF"/>
</linearGradient>
<linearGradient id="paint2_linear" x1="-1.84661e-06" y1="172.269" x2="656.712" y2="143.036" gradientUnits="userSpaceOnUse">
<stop stop-color="#B1F3F5"/>
<stop offset="1" stop-color="#CCD2FF"/>
</linearGradient>
<linearGradient id="paint3_linear" x1="-1.84661e-06" y1="172.269" x2="656.712" y2="143.036" gradientUnits="userSpaceOnUse">
<stop stop-color="#B1F3F5"/>
<stop offset="1" stop-color="#CCD2FF"/>
</linearGradient>
<linearGradient id="paint4_linear" x1="-1.84661e-06" y1="172.269" x2="656.712" y2="143.036" gradientUnits="userSpaceOnUse">
<stop stop-color="#B1F3F5"/>
<stop offset="1" stop-color="#CCD2FF"/>
</linearGradient>
<linearGradient id="paint5_linear" x1="-1.84661e-06" y1="172.269" x2="656.712" y2="143.036" gradientUnits="userSpaceOnUse">
<stop stop-color="#B1F3F5"/>
<stop offset="1" stop-color="#CCD2FF"/>
</linearGradient>
<linearGradient id="paint6_linear" x1="-1.84661e-06" y1="172.269" x2="656.712" y2="143.036" gradientUnits="userSpaceOnUse">
<stop stop-color="#B1F3F5"/>
<stop offset="1" stop-color="#CCD2FF"/>
</linearGradient>
<linearGradient id="paint7_linear" x1="-1.84661e-06" y1="172.269" x2="656.712" y2="143.036" gradientUnits="userSpaceOnUse">
<stop stop-color="#B1F3F5"/>
<stop offset="1" stop-color="#CCD2FF"/>
</linearGradient>
</defs>
</svg>