<svg width="868" height="509" viewBox="0 0 868 509" fill="none" xmlns="http://www.w3.org/2000/svg">
<path d="M97.5468 323.698C86.7681 320.81 75.3196 316.409 63.134 310.484C25.0651 291.977 0.429843 261.818 -8.10876 223.266C-14.7947 193.08 -11.3368 158.944 1.37924 129.611L7.85147 132.413C-4.11075 160.005 -7.50364 193.404 -1.22377 221.754C6.83347 258.131 30.1533 286.626 66.2155 304.158C100.065 320.611 128.727 324.815 151.407 316.643C184.2 304.828 199.893 270.101 212.503 242.197C215.919 234.636 219.146 227.496 222.364 221.712C229.916 208.131 243.425 190.57 264.895 184.025C277.929 180.052 287.698 182.063 288.109 182.15L297.352 184.127L289.077 188.675C288.039 189.252 263.434 203.34 261.049 239.296C258.799 273.237 277.484 319.905 337.549 339.727C385.262 355.474 409.4 345.289 427.027 337.853C430.626 336.335 434.026 334.901 437.312 333.815C444.982 331.281 457.732 323.332 470.509 308.62C479.976 297.719 492.707 279.327 499.598 253.611C505.318 232.264 513.15 216.427 522.875 206.542C532.319 196.941 541.748 194.808 547.995 194.708L553.563 194.619L551.268 199.68C551.197 199.837 544.032 215.87 542.182 235.961C539.753 262.359 547.185 282.982 564.273 297.254C605.032 331.299 621.634 341.44 648.86 348.924C649.169 349.009 649.488 349.096 649.796 349.178C710.304 365.391 746.931 334.445 785.707 301.69C787.518 300.16 789.333 298.627 791.153 297.097C814.291 277.64 824.852 268.76 835.901 268.104L842.338 267.723L839.191 273.337C838.713 274.192 838.234 275.035 837.76 275.875C831.841 286.328 826.731 295.356 826.546 312.011L819.494 311.924C819.669 296.233 823.877 286.489 828.899 277.272C821.701 280.753 812.158 288.641 795.7 302.481C793.883 304.008 792.073 305.538 790.266 307.065C770.01 324.175 750.877 340.337 728.195 350.521C702.911 361.874 676.658 363.661 647.967 355.973C647.643 355.886 647.32 355.798 646.994 355.709C618.58 347.897 601.457 337.485 559.75 302.649C541 286.987 532.503 263.631 535.179 235.106C536.493 221.097 540.147 209.178 542.569 202.498C531.931 205.222 516.835 216.532 506.41 255.437C493.642 303.087 459.618 333.862 439.535 340.497C436.517 341.493 433.244 342.875 429.779 344.336C411.122 352.207 385.577 362.988 335.343 346.408C307.584 337.247 285.369 321.267 271.102 300.194C258.675 281.843 252.608 260.048 254.015 238.823C255.768 212.387 268.556 196.557 277.343 188.688C265.553 189.605 244.844 195.8 228.531 225.132C225.457 230.662 222.288 237.673 218.933 245.097C206.472 272.672 189.405 310.439 153.811 323.263C137.317 329.205 118.726 329.373 97.5468 323.698Z" fill="url(#paint0_linear)"/>
<path d="M86.8924 307.723C62.2403 301.118 49.7295 290.153 41.0589 282.555C40.07 281.688 39.1372 280.871 38.247 280.116C17.6317 262.635 5.01471 236.91 1.76076 205.721C-1.25938 176.783 4.27704 146.031 17.3505 119.132L23.6951 122.209C11.1879 147.945 5.8877 177.348 8.77334 205C11.837 234.351 23.6057 258.471 42.8085 274.755C43.7262 275.533 44.6879 276.376 45.7073 277.268C55.1206 285.518 69.3404 297.986 100.383 303.504C158.922 313.912 173.36 286.084 193.344 247.569C200.442 233.889 208.486 218.382 219.365 203.606C241.988 172.876 268.996 169.036 287.671 171.225C307.723 173.578 322.262 183.051 322.872 183.453L349.125 200.787L320.033 189.796C319.379 189.713 314.612 189.335 303.929 194.098C289.618 200.479 280.57 211.253 276.267 227.038C270.832 246.978 273.126 266.489 282.902 283.46C295.767 305.794 320.705 322.459 355.019 331.654C396.434 342.751 427.129 326.229 438.686 320.009C451.728 312.989 475.388 294.571 487.307 250.09C493.386 227.401 497.91 212.761 513.617 198.283C532.632 180.758 552.712 180.85 565.17 186.785L568.332 188.291L566.847 191.457C566.725 191.716 554.72 217.614 555.515 243.033C555.92 255.984 557.874 270.033 569.323 285.001C581.851 301.379 604.179 316.7 637.581 331.837C665.974 344.704 690.406 345.348 716.795 333.923C741.824 323.088 767.093 302.535 802.715 272.684C822.229 256.332 843.613 249.495 861.303 254.235L867.717 255.954L862.656 260.469C860 262.768 842.29 282.9 841.939 303.88C841.774 313.787 845.589 322.482 853.303 329.639L848.499 334.812C839.255 326.237 834.669 315.821 834.869 303.833C835.172 285.739 846.537 268.658 853.407 260.301C839.193 258.925 822.705 265.26 807.206 278.248C771.11 308.497 745.512 329.164 719.607 340.378C691.233 352.66 665.038 352.005 634.672 338.242C556.765 302.937 549.325 270.694 548.467 243.243C547.785 221.427 555.612 200.005 558.982 191.862C548.528 188.35 533.259 189.765 518.404 203.454C504.817 215.979 500.571 227.838 494.119 251.915C481.517 298.946 456.079 318.647 442.038 326.203C436.521 329.173 425.041 335.352 409.685 339.122C390.992 343.71 371.986 343.485 353.198 338.45C317.032 328.76 290.611 310.956 276.791 286.962C266.059 268.332 263.526 246.969 269.464 225.183C274.356 207.237 284.687 194.966 301.047 187.672C304.289 186.226 307.099 185.185 309.516 184.443C303.753 181.95 295.749 179.224 286.604 178.186C262.253 175.419 241.543 185.374 225.05 207.777C214.498 222.111 206.928 236.701 199.608 250.811C189.286 270.706 180.371 287.888 165.725 299.351C149.447 312.092 128.294 315.613 99.1555 310.432C94.7622 309.651 90.6826 308.738 86.8924 307.723Z" fill="url(#paint1_linear)"/>
<path d="M185.697 270.46C168.613 265.882 149.886 257.361 133.512 246.641C110.729 231.727 92.8371 212.897 81.7698 192.189C64.1002 159.124 63.1719 121.749 79.0127 81.1013C92.8822 45.5086 114.419 30.4736 124.364 25.1678C114.684 18.0404 97.0385 10.5377 76.0307 8.3816C56.2007 6.34627 26.8931 8.36587 -0.106153 29.5508L-4.46781 24.0158C24.3836 1.37856 55.6207 -0.787865 76.7446 1.3811C102.953 4.06746 124.049 14.4414 133.328 23.5258L137.372 27.4861L132.031 29.3567C131.748 29.4582 102.465 40.3435 85.5849 83.6591C70.5241 122.308 71.3329 157.711 87.9913 188.883C98.5027 208.552 115.579 226.491 137.374 240.758C154.769 252.147 174.875 260.95 192.504 264.892C203.427 267.337 242.296 274.426 283.89 262.998C327.937 250.895 360.301 222.595 380.05 178.876C418.153 94.5276 456.066 90.7898 475.651 96.0377L475.594 96.2501L481.111 97.7284L477.366 101.789C477.276 101.889 468.187 112.023 460.558 127.408C453.626 141.391 446.537 162.6 452.065 184.488C458.384 209.496 479.285 238.414 511.796 247.125C512.079 247.201 512.362 247.261 512.645 247.334C540.211 254.379 564.028 249.941 589.241 245.25C620.239 239.483 652.293 233.512 691.75 250.276C700.201 253.866 733.407 278.644 741.448 334.285C743.285 346.999 746.405 359.522 749.421 371.633C751.389 379.531 753.246 386.99 754.694 394.243L747.779 395.609C746.363 388.518 744.525 381.136 742.578 373.323C739.519 361.042 736.358 348.344 734.469 335.28C726.974 283.417 696.208 259.811 688.995 256.747C651.5 240.819 620.511 246.584 590.541 252.162C565.684 256.787 539.981 261.568 510.906 254.138C472.668 244.326 451.621 211.401 445.241 186.147C435.758 148.61 458.849 113.812 468.359 101.512C462.838 100.85 454.267 101.178 443.695 106.761C423.345 117.51 404.089 142.746 386.461 181.77C365.81 227.487 331.932 257.098 285.768 269.784C242.6 281.645 202.293 274.294 190.968 271.758C189.232 271.37 187.473 270.936 185.697 270.46Z" fill="url(#paint2_linear)"/>
<path d="M769.741 508.754C749.749 500.012 736.036 489.789 726.587 476.579C708.983 451.972 707.123 420.867 705.326 390.784C703.402 358.611 701.414 325.344 680.59 298.875C658.479 270.77 614.838 274.831 596.203 276.565C594.519 276.722 593.026 276.861 591.756 276.958C589.118 277.161 585.521 277.699 581.353 278.323C571.056 279.863 556.954 281.971 540.981 281.65C521.982 281.27 504.651 277.412 489.472 270.187C454.153 253.376 437.338 228.732 429.45 211.021C422.416 195.229 419.473 178.109 420.795 161.985C417.272 168.794 412.787 178.511 407.419 192.211C393.181 228.541 363.255 262.036 327.364 281.811C304.967 294.151 280.375 301.323 254.273 303.127C224.535 305.184 192.825 300.228 160.038 288.395C124.333 275.513 95.8087 256.064 75.2586 230.588C55.9503 206.652 44.5382 177.823 42.2546 147.216C39.816 114.523 47.311 68.063 75.0838 32.9485C50.7268 29.4762 17.7126 42.8938 -10.9809 68.3443L-15.6758 63.1061C16.9851 34.1367 55.4949 20.1081 82.4409 27.3283L87.8839 28.7867L84.2028 33.008C54.7312 66.9452 46.8429 113.991 49.2844 146.713C53.875 208.27 95.1144 257.497 162.426 281.784C194.292 293.28 225.025 298.098 253.777 296.11C278.848 294.378 302.458 287.493 323.951 275.652C358.447 256.646 387.195 224.492 400.851 189.642C416.089 150.757 424.505 142.672 425.415 141.877L434.874 133.619L431.101 145.586C425.022 164.868 426.769 187.678 435.894 208.169C443.298 224.796 459.13 247.951 492.502 263.835C525.522 279.554 559.813 274.425 580.301 271.363C584.602 270.719 588.317 270.164 591.206 269.942C592.445 269.846 593.899 269.71 595.541 269.558C615.323 267.718 661.647 263.407 686.135 294.533C708.322 322.735 710.377 357.121 712.365 390.374C714.184 420.8 715.901 449.539 732.324 472.495C741.003 484.625 753.791 494.098 772.566 502.308L769.741 508.754Z" fill="url(#paint3_linear)"/>
<path d="M796.669 489.599C744.215 472.742 730.18 456.614 723.909 367.522C720.377 317.354 708.666 291.24 680.7 271.169C665.407 260.196 637.23 257.716 596.943 263.795C593.753 264.276 592.745 264.423 592.002 264.389C591.436 264.439 589.58 264.76 587.783 265.072C574.34 267.405 539.796 273.397 511.24 265.747C509.655 265.322 508.091 264.856 506.547 264.345C467.448 251.383 439.978 221.639 433.065 184.782C428.07 158.157 437.22 133.196 444.783 118.228C438.424 122.073 429.384 129.326 420.032 142.701C408.882 158.649 402.382 172.522 396.096 185.939C392.139 194.387 388.401 202.367 383.794 210.132C369.979 233.421 315.986 307.776 201.229 286.79C194.959 285.645 188.952 284.286 183.215 282.748C132.767 269.233 102.558 241.744 85.6483 219.916C64.0083 191.982 52.399 158.295 54.5937 129.804C58.3627 80.8554 78.5749 42.076 98.2192 25.931C72.5147 15.3447 33.6078 15.6472 -4.60728 46.4512L-9.04216 40.9749C34.5436 5.83964 79.3528 8.19403 106.755 22.1092L112.309 24.9294L107.033 28.2281C87.9125 40.1818 65.4984 80.0365 61.625 130.352C59.5911 156.751 70.9336 189.424 91.2257 215.618C109.303 238.953 143.287 269.044 202.492 279.87C312.767 300.034 364.497 228.842 377.726 206.543C382.158 199.071 385.826 191.242 389.709 182.953C395.822 169.904 402.751 155.115 414.249 138.67C433.333 111.374 451.541 107.396 452.307 107.239L460.267 105.619L456.023 112.529C449.265 123.529 434.176 152.467 439.997 183.495C446.432 217.796 472.14 245.524 508.764 257.666C536.426 266.831 572.856 260.517 586.568 258.138C590.243 257.501 591.373 257.312 592.224 257.353C592.728 257.313 594.331 257.071 595.882 256.837C611.601 254.464 659.439 247.244 684.812 265.457C719 289.992 727.809 322.514 730.944 367.036C734.146 412.526 739.118 436.239 748.681 451.611C758.598 467.555 773.955 474.908 798.825 482.9L796.669 489.599Z" fill="url(#paint4_linear)"/>
<defs>
<linearGradient id="paint0_linear" x1="-30.5036" y1="121.037" x2="2062.14" y2="681.76" gradientUnits="userSpaceOnUse">
<stop stop-color="#C5CBF9"/>
<stop offset="0.541667" stop-color="#F9F9FF"/>
</linearGradient>
<linearGradient id="paint1_linear" x1="-30.5036" y1="121.037" x2="2062.14" y2="681.76" gradientUnits="userSpaceOnUse">
<stop stop-color="#C5CBF9"/>
<stop offset="0.541667" stop-color="#F9F9FF"/>
</linearGradient>
<linearGradient id="paint2_linear" x1="-30.5036" y1="121.037" x2="2062.14" y2="681.76" gradientUnits="userSpaceOnUse">
<stop stop-color="#C5CBF9"/>
<stop offset="0.541667" stop-color="#F9F9FF"/>
</linearGradient>
<linearGradient id="paint3_linear" x1="-30.5036" y1="121.037" x2="2062.14" y2="681.76" gradientUnits="userSpaceOnUse">
<stop stop-color="#C5CBF9"/>
<stop offset="0.541667" stop-color="#F9F9FF"/>
</linearGradient>
<linearGradient id="paint4_linear" x1="-30.5036" y1="121.037" x2="2062.14" y2="681.76" gradientUnits="userSpaceOnUse">
<stop stop-color="#C5CBF9"/>
<stop offset="0.541667" stop-color="#F9F9FF"/>
</linearGradient>
</defs>
</svg>