<svg width="821" height="562" viewBox="0 0 821 562" fill="none" xmlns="http://www.w3.org/2000/svg">
<path d="M351.881 384.634C351.703 379.4 351.774 373.956 351.849 368.193C351.965 359.357 352.084 350.22 351.29 341.157C347.815 301.491 366.662 279.065 371.898 275.231C396.344 257.326 419.379 256.285 441.653 255.276C459.77 254.455 476.883 253.68 494.719 244.39C516.068 233.268 525.93 209.702 526.233 191.281C526.74 160.461 495.68 138.437 495.369 138.218L492.039 135.896L495.617 133.977C508.129 127.273 535.036 123.815 574.93 175.859C595.606 202.83 622.458 217.148 654.741 218.409C685.228 219.588 710.836 208.46 717.96 205.017C729.464 199.456 741.875 190.157 752.005 179.507C764.699 166.163 773.549 151.046 777.601 135.791C784.021 111.616 778.845 87.0726 762.218 62.8421C743.584 35.6866 721.661 32.8891 721.443 32.8645L717.491 32.4127L719.612 29.0534C724.53 21.2966 737.37 10.7524 754.981 4.68098C769.171 -0.213197 791.027 -3.74193 814.555 7.22944L812.448 11.7471C790.429 1.4824 769.928 4.80117 756.605 9.39417C746.319 12.9417 733.081 20.2758 726.02 28.7349C733.71 30.7852 750.997 37.6776 766.33 60.0214C783.817 85.5045 789.23 111.426 782.42 137.07C778.156 153.131 768.887 168.994 755.618 182.944C745.089 194.012 732.155 203.693 720.131 209.505C713.117 212.895 688.814 223.481 659.292 223.483C657.723 223.483 656.144 223.452 654.547 223.39C620.712 222.068 592.595 207.096 570.974 178.891C552.518 154.815 535.173 140.508 519.423 136.369C511.237 134.219 505.279 135.374 501.595 136.715C510.133 143.666 531.669 163.95 531.217 191.362C530.914 209.804 521.779 235.915 497.023 248.809C478.21 258.609 459.741 259.446 441.881 260.254C420.345 261.229 398.076 262.238 374.846 279.25C370.375 282.524 353.019 303.75 356.257 340.721C357.074 350.032 356.952 359.296 356.835 368.256C356.759 373.96 356.69 379.346 356.864 384.464L351.881 384.634Z" fill="white"/>
<path d="M818.81 22.4722H817.363V22.5272C817.363 22.5793 817.877 22.6257 817.987 22.6793L820.302 18.1891C784.603 0.968206 754.212 9.79945 737.603 23.8029L734.273 26.6395L738.458 28.0657C753.557 33.235 775.452 57.1137 786.267 91.1876C791.94 109.066 789.43 133.421 779.701 154.748C771.036 173.747 752.52 199.963 713.509 216.952C640.858 248.593 593.719 207.818 581.001 194.569C576.74 190.13 572.948 185.321 568.934 180.23C562.61 172.214 555.447 163.129 544.868 153.638C527.313 137.887 514.133 138.073 513.577 138.085L507.836 138.247L511.877 142.33C518.311 148.83 533.386 166.358 534.402 188.692C535.527 213.38 522.319 236.636 499.073 250.9C481.512 261.675 455.415 263.175 445.589 263.739C442.955 263.89 442.146 263.944 441.566 264.107C441.213 264.161 440.071 264.252 438.964 264.34C427.758 265.232 393.658 267.947 379.139 284.586C359.577 307.005 358.778 330.849 363.831 362.056C368.992 393.942 360.475 416.919 353.717 427.8C339.271 451.06 303.248 466.358 272.759 465.174C240.476 463.913 213.624 449.597 192.948 422.622C153.053 370.579 126.145 374.035 113.635 380.741L110.061 382.658L113.384 384.98C113.697 385.199 144.755 407.279 144.249 438.045C143.948 456.464 134.086 480.03 112.735 491.152C99.9815 497.796 86.4183 500.758 73.3025 503.621C58.6402 506.822 44.7902 509.847 32.1479 517.565C17.7882 526.334 7.76966 539.594 0.306763 559.299L5.04602 561.041V561.122H820.26V552.434H818.812L818.81 22.4722Z" fill="white"/>
</svg>